<svg width="19" height="29" viewBox="0 0 19 29" fill="none" xmlns="http://www.w3.org/2000/svg">
<path fill-rule="evenodd" clip-rule="evenodd" d="M9.00029 0C9.2655 0 9.51986 0.105357 9.70739 0.292893C9.89493 0.48043 10.0003 0.734784 10.0003 1V24.586L16.2923 18.292C16.4801 18.1042 16.7347 17.9987 17.0003 17.9987C17.2658 17.9987 17.5205 18.1042 17.7083 18.292C17.8961 18.4798 18.0015 18.7344 18.0015 19C18.0015 19.2656 17.8961 19.5202 17.7083 19.708L9.70829 27.708C9.61539 27.8011 9.50504 27.875 9.38355 27.9254C9.26206 27.9758 9.13182 28.0018 9.00029 28.0018C8.86875 28.0018 8.73851 27.9758 8.61702 27.9254C8.49553 27.875 8.38518 27.8011 8.29229 27.708L0.292286 19.708C0.104513 19.5202 -0.000976569 19.2656 -0.000976562 19C-0.000976556 18.7344 0.104513 18.4798 0.292286 18.292C0.48006 18.1042 0.734735 17.9987 1.00029 17.9987C1.26584 17.9987 1.52051 18.1042 1.70829 18.292L8.00029 24.586V1C8.00029 0.734784 8.10564 0.48043 8.29318 0.292893C8.48072 0.105357 8.73507 0 9.00029 0Z" fill="white"/>
</svg>
