<svg width="19" height="24" viewBox="0 0 19 24" fill="none" xmlns="http://www.w3.org/2000/svg">
<path d="M7.82345 10.2893L9.7012 8.56733C10.2151 8.09591 10.5764 7.48173 10.7388 6.80356C10.9013 6.1254 10.8575 5.41416 10.613 4.76108L9.81058 2.61908C9.51113 1.81987 8.91818 1.16492 8.15258 0.787731C7.38698 0.410541 6.50636 0.339498 5.6902 0.589082C2.6872 1.50783 0.378951 4.29908 1.08945 7.61446C1.5567 9.79496 2.45008 12.532 4.14495 15.4448C5.56513 17.8981 7.35179 20.12 9.44308 22.0336C11.9543 24.3191 15.5418 23.7477 17.8501 21.5961C18.4688 21.0192 18.8443 20.228 18.8999 19.3839C18.9555 18.5397 18.687 17.7062 18.1493 17.0531L16.6784 15.2663C16.2351 14.7275 15.6409 14.3335 14.9721 14.1349C14.3032 13.9363 13.5902 13.9421 12.9247 14.1516L10.4957 14.9172C10.4021 14.821 10.2945 14.7063 10.1755 14.5742C9.67607 14.0217 9.23425 13.4198 8.85682 12.7778C8.48965 12.1299 8.18943 11.4462 7.96082 10.7373C7.91196 10.589 7.86616 10.4396 7.82345 10.2893Z" fill="#434343"/>
</svg>
