<svg width="11" height="14" viewBox="0 0 11 14" fill="none" xmlns="http://www.w3.org/2000/svg">
<path d="M2.01909 0.511475L2.96766 0.225761C3.39946 0.095489 3.86391 0.126808 4.27432 0.313871C4.68472 0.500935 5.01303 0.830957 5.19794 1.24233L5.78823 2.55547C5.94729 2.90922 5.9916 3.3039 5.91494 3.68411C5.83828 4.06432 5.6445 4.41099 5.3608 4.67548L4.32937 5.63719C4.31663 5.64909 4.30617 5.66323 4.29851 5.6789C4.19051 5.89948 4.35451 6.48862 4.86823 7.3789C5.44766 8.38233 5.89509 8.7789 6.10251 8.71776L7.45623 8.30348C7.82696 8.19026 8.22383 8.1959 8.5912 8.31958C8.95857 8.44327 9.27803 8.67881 9.5048 8.99319L10.3437 10.1549C10.607 10.5197 10.729 10.9676 10.687 11.4156C10.6449 11.8635 10.4417 12.2809 10.1151 12.5903L9.39337 13.2732C9.1424 13.5109 8.83764 13.6844 8.5051 13.7788C8.17256 13.8733 7.82211 13.8858 7.48366 13.8155C5.47394 13.3972 3.67337 11.7789 2.06651 8.99605C0.459086 6.21147 -0.0420571 3.84005 0.603657 1.88976C0.711746 1.56325 0.896841 1.26755 1.1433 1.02766C1.38976 0.78776 1.69035 0.610713 2.01966 0.511475H2.01909ZM2.26709 1.33205C2.06949 1.39156 1.88913 1.49777 1.74123 1.64168C1.59333 1.7856 1.48225 1.96301 1.41737 2.1589C0.8608 3.83947 1.31166 5.97433 2.8088 8.56748C4.3048 11.1589 5.92652 12.616 7.65794 12.976C7.86111 13.0183 8.07149 13.0107 8.2711 12.954C8.47071 12.8973 8.65363 12.7931 8.80423 12.6503L9.52537 11.968C9.70132 11.8015 9.81081 11.5767 9.83351 11.3355C9.85622 11.0943 9.79058 10.8531 9.6488 10.6566L8.80994 9.49433C8.68786 9.32509 8.51588 9.19828 8.31811 9.13167C8.12034 9.06506 7.90669 9.062 7.70709 9.1229L6.34994 9.53833C5.59909 9.76176 4.8928 9.13605 4.12594 7.8069C3.47623 6.68233 3.25109 5.86976 3.5288 5.30233C3.58251 5.19262 3.65566 5.09376 3.7448 5.01033L4.77623 4.04862C4.92905 3.90621 5.03344 3.71951 5.07474 3.51475C5.11604 3.30998 5.09219 3.09742 5.00651 2.9069L4.41623 1.59433C4.31666 1.37277 4.13985 1.19502 3.91881 1.09428C3.69778 0.99354 3.44763 0.9767 3.21509 1.0469L2.26651 1.33262L2.26709 1.33205Z" fill="#545454"/>
</svg>
