<svg width="71" height="76" viewBox="0 0 71 76" fill="none" xmlns="http://www.w3.org/2000/svg">
<g opacity="0.85">
<path d="M52.9668 25.0977H55.9095C59.0313 25.0977 62.0252 26.4197 64.2326 28.7731C66.4401 31.1264 67.6802 34.3182 67.6802 37.6463C67.6802 40.9744 66.4401 44.1662 64.2326 46.5195C62.0252 48.8729 59.0313 50.1949 55.9095 50.1949H52.9668" stroke="#402615" stroke-width="4.60971" stroke-linecap="round" stroke-linejoin="round"/>
<path d="M5.88672 25.0977H52.9696V53.3321C52.9696 56.6602 51.7295 59.852 49.5221 62.2053C47.3146 64.5587 44.3207 65.8807 41.1989 65.8807H17.6575C14.5357 65.8807 11.5417 64.5587 9.33429 62.2053C7.12685 59.852 5.88672 56.6602 5.88672 53.3321V25.0977Z" stroke="#402615" stroke-width="4.60971" stroke-linecap="round" stroke-linejoin="round"/>
<path d="M17.6562 3.13672V12.5482" stroke="#402615" stroke-width="4.60971" stroke-linecap="round" stroke-linejoin="round"/>
<path d="M29.4268 3.13672V12.5482" stroke="#402615" stroke-width="4.60971" stroke-linecap="round" stroke-linejoin="round"/>
<path d="M41.1963 3.13672V12.5482" stroke="#402615" stroke-width="4.60971" stroke-linecap="round" stroke-linejoin="round"/>
</g>
</svg>
