<svg width="21" height="24" viewBox="0 0 21 24" fill="none" xmlns="http://www.w3.org/2000/svg">
<path d="M16.9441 6.69826C16.0308 6.9712 15.2026 7.51483 14.5492 8.27026C13.7883 5.31826 12.1488 0.85026 10.5501 0.12026C10.3812 0.0332986 10.1958 -0.00755354 10.0097 0.00114843C9.82348 0.0098504 9.64193 0.0678513 9.48031 0.17026C8.48031 0.81326 7.82904 2.87926 8.39879 6.79426C6.20132 2.35326 5.43411 2.36026 5.07995 2.35326C4.90955 2.35583 4.74364 2.41385 4.60298 2.52004C4.46231 2.62624 4.35316 2.77589 4.28919 2.95026C4.05096 3.53426 3.5736 5.35626 4.73665 9.27726C3.33629 7.16026 2.90603 6.89026 2.41147 6.91726C2.25355 6.9275 2.10108 6.98467 1.97017 7.08272C1.83926 7.18077 1.73479 7.31605 1.66781 7.47426C1.24842 8.34726 1.29643 10.5423 2.59806 13.8143C2.15145 13.38 1.58617 13.1231 0.992083 13.0843C0.832431 13.0967 0.678119 13.1529 0.543179 13.2479C0.408239 13.3429 0.296952 13.4737 0.219437 13.6283C-0.309548 14.7013 0.800959 17.7113 2.17324 19.7523C3.28466 21.4273 5.5102 24.0003 8.74209 24.0003C9.19465 23.9996 9.64618 23.9524 10.0908 23.8593C10.245 23.8261 10.381 23.7267 10.4689 23.5828C10.5567 23.439 10.5891 23.2625 10.5591 23.0923C10.5291 22.922 10.439 22.7719 10.3087 22.6749C10.1784 22.578 10.0186 22.5421 9.86437 22.5753C7.17868 23.1533 5.15422 21.5233 3.92868 20.0603C2.09806 17.8703 1.29462 15.2403 1.24842 14.4383C1.63248 14.6113 2.73755 15.3303 4.88792 18.3723C4.97885 18.5127 5.11658 18.6075 5.27082 18.6358C5.42506 18.6641 5.58318 18.6236 5.71038 18.5233C5.83758 18.4229 5.92346 18.2708 5.94911 18.1005C5.97476 17.9303 5.93808 17.7557 5.84716 17.6153C2.82451 12.5493 2.52832 9.48326 2.62705 8.44926C3.51654 9.44926 5.73665 13.1203 7.40966 15.8943C7.49211 16.0365 7.62201 16.1372 7.77121 16.1744C7.92041 16.2116 8.07689 16.1825 8.20676 16.0933C8.33981 16.0086 8.43715 15.8694 8.47754 15.7058C8.51793 15.5423 8.49808 15.3677 8.42234 15.2203C4.93502 8.16026 5.0564 4.95226 5.25929 3.87426C5.78194 4.45826 7.17053 6.49226 10.0963 13.5003C10.1587 13.6542 10.2736 13.7748 10.416 13.836C10.5583 13.8972 10.7168 13.894 10.8571 13.8273C11 13.7656 11.1151 13.644 11.1772 13.4891C11.2393 13.3342 11.2434 13.1585 11.1886 13.0003C8.35169 4.49626 9.58357 1.61526 10.0546 1.28826C10.6651 1.28826 12.3798 4.53526 13.4495 8.79026C13.5129 9.05326 13.5772 9.31026 13.6352 9.56026C13.4852 9.85135 13.368 10.1617 13.2865 10.4843C12.7068 12.8393 12.1243 18.1843 13.2457 19.6543C13.3573 19.8084 13.5017 19.9297 13.6661 20.0072C13.8305 20.0847 14.0097 20.116 14.1877 20.0983C14.4129 20.0712 14.6299 19.9893 14.8228 19.8584C15.0158 19.7274 15.1801 19.5508 15.3037 19.3413C16.3453 17.6663 15.7339 13.4623 14.9024 9.78426C15.4689 8.9007 16.2877 8.25274 17.2276 7.94426C17.4285 7.87427 17.6428 7.86586 17.8476 7.91994C18.0525 7.97401 18.2402 8.08853 18.3906 8.25126C18.8671 8.84126 19.6995 11.0493 17.1769 18.8343C17.1344 18.9946 17.1492 19.1669 17.2182 19.3156C17.2872 19.4643 17.4051 19.5783 17.5477 19.6341C17.6904 19.6899 17.847 19.6832 17.9854 19.6156C18.1238 19.5479 18.2334 19.4244 18.2919 19.2703C20.3028 13.0643 20.618 9.06626 19.2738 7.38426C18.9815 7.04236 18.6086 6.79723 18.1971 6.6764C17.7855 6.55557 17.3516 6.56383 16.9441 6.70026V6.69826ZM14.3281 18.6163C14.2847 18.7025 14.2146 18.7685 14.1307 18.8023C13.6959 18.2313 13.6959 14.8493 14.1714 12.0753C15.0727 16.8703 14.5492 18.2753 14.3281 18.6153V18.6163Z" fill="#545454"/>
</svg>
