<svg width="33" height="26" viewBox="0 0 33 26" fill="none" xmlns="http://www.w3.org/2000/svg">
<path d="M22.5003 4.41998C22.5001 5.32255 22.1432 6.18847 21.5073 6.82898C20.0433 8.30498 18.6228 9.84398 17.1033 11.266C16.9337 11.4205 16.7111 11.504 16.4817 11.4993C16.2523 11.4946 16.0334 11.4019 15.8703 11.2405L11.4933 6.83048C10.8571 6.18956 10.5 5.32308 10.5 4.41998C10.5 3.51688 10.8571 2.6504 11.4933 2.00948C11.8108 1.68965 12.1884 1.43582 12.6044 1.26259C13.0205 1.08937 13.4667 1.00019 13.9173 1.00019C14.3679 1.00019 14.8141 1.08937 15.2302 1.26259C15.6462 1.43582 16.0238 1.68965 16.3413 2.00948L16.5003 2.16998L16.6593 2.00948C17.1358 1.52778 17.745 1.19878 18.4091 1.06437C19.0732 0.929954 19.7623 0.996209 20.3887 1.2547C21.015 1.51318 21.5503 1.95221 21.9263 2.51589C22.3024 3.07956 22.5022 3.74239 22.5003 4.41998V4.41998Z" stroke="white" stroke-width="1.5" stroke-linejoin="round"/>
<path d="M25.5 25L31.236 19.264C31.4048 19.0954 31.4998 18.8666 31.5 18.628V10.75C31.5 10.1533 31.2629 9.58097 30.841 9.15901C30.419 8.73705 29.8467 8.5 29.25 8.5V8.5C28.6533 8.5 28.081 8.73705 27.659 9.15901C27.2371 9.58097 27 10.1533 27 10.75V17.5" stroke="white" stroke-width="1.5" stroke-linecap="round" stroke-linejoin="round"/>
<path d="M25.5 19L26.787 17.713C26.8546 17.6455 26.9082 17.5653 26.9448 17.477C26.9813 17.3887 27.0001 17.294 27 17.1985C26.9998 17.0636 26.9621 16.9314 26.8911 16.8167C26.8201 16.702 26.7186 16.6093 26.598 16.549L25.9335 16.2175C25.3705 15.936 24.7333 15.8387 24.112 15.9394C23.4907 16.0401 22.9168 16.3336 22.4715 16.7785L21.129 18.121C20.5664 18.6835 20.2502 19.4464 20.25 20.242V25" stroke="white" stroke-width="1.5" stroke-linecap="round" stroke-linejoin="round"/>
<path d="M7.5 25L1.764 19.264C1.59517 19.0954 1.50021 18.8666 1.5 18.628V10.75C1.5 10.1533 1.73705 9.58097 2.15901 9.15901C2.58097 8.73705 3.15326 8.5 3.75 8.5V8.5C4.34674 8.5 4.91903 8.73705 5.34099 9.15901C5.76295 9.58097 6 10.1533 6 10.75V17.5" stroke="white" stroke-width="1.5" stroke-linecap="round" stroke-linejoin="round"/>
<path d="M7.5 19L6.213 17.713C6.14545 17.6454 6.09187 17.5652 6.05533 17.4769C6.01878 17.3886 5.99998 17.294 6 17.1985V17.1985C6 16.924 6.156 16.6735 6.402 16.549L7.0665 16.2175C7.62947 15.936 8.26671 15.8387 8.88802 15.9394C9.50933 16.0401 10.0832 16.3336 10.5285 16.7785L11.871 18.121C12.4336 18.6835 12.7498 19.4464 12.75 20.242V25" stroke="white" stroke-width="1.5" stroke-linecap="round" stroke-linejoin="round"/>
</svg>
