<svg width="10" height="15" viewBox="0 0 10 15" fill="none" xmlns="http://www.w3.org/2000/svg">
<path fill-rule="evenodd" clip-rule="evenodd" d="M8.1857 2.024C7.34548 1.18354 6.21051 0.704038 5.0222 0.6875H4.9772C3.7888 0.703798 2.65365 1.18314 1.81324 2.02354C0.972836 2.86395 0.493498 3.9991 0.4772 5.1875C0.462575 6.03125 0.69995 6.86037 1.15895 7.56913L4.70045 14.75H5.30007L8.84045 7.56913C9.30057 6.86037 9.53795 6.03125 9.5222 5.1875C9.50566 3.99919 9.02616 2.86422 8.1857 2.024ZM4.91532 1.8125L5.00757 1.82375L5.09082 1.8125C5.97459 1.85099 6.81003 2.22657 7.42541 2.86204C8.04079 3.49751 8.38936 4.34458 8.39945 5.22913C8.40806 5.85691 8.22476 6.47235 7.87407 6.99312L7.85157 7.03137L7.83245 7.07075L4.9997 12.8139L2.16807 7.07638L2.14895 7.0325L2.12645 6.99425C1.77577 6.47348 1.59247 5.85803 1.60107 5.23025C1.61067 4.34468 1.95964 3.49655 2.57606 2.86066C3.19248 2.22478 4.02936 1.84961 4.9142 1.8125H4.91532ZM5.60382 4.25263C5.48098 4.17048 5.34316 4.11334 5.19823 4.08446C5.05331 4.05558 4.90411 4.05553 4.75917 4.08431C4.61422 4.11309 4.47636 4.17014 4.35346 4.2522C4.23056 4.33426 4.12503 4.43972 4.04289 4.56256C3.96074 4.68541 3.9036 4.82323 3.87472 4.96815C3.84584 5.11308 3.84579 5.26227 3.87457 5.40722C3.90336 5.55217 3.9604 5.69003 4.04246 5.81293C4.12452 5.93582 4.22998 6.04136 4.35282 6.1235C4.60092 6.28939 4.90475 6.34994 5.19748 6.29181C5.49022 6.23369 5.74787 6.06166 5.91376 5.81356C6.07965 5.56547 6.1402 5.26164 6.08207 4.9689C6.02395 4.67617 5.85192 4.41852 5.60382 4.25263ZM3.72845 3.31662C3.97392 3.14408 4.25142 3.02236 4.54462 2.95865C4.83782 2.89494 5.14081 2.89052 5.43575 2.94564C5.73068 3.00077 6.01162 3.11433 6.26202 3.27964C6.51242 3.44495 6.72722 3.65867 6.8938 3.90823C7.06037 4.15779 7.17535 4.43815 7.23196 4.73281C7.28857 5.02746 7.28568 5.33046 7.22345 5.62399C7.16123 5.91751 7.04092 6.19562 6.86961 6.44195C6.6983 6.68829 6.47946 6.89787 6.22595 7.05838C5.72971 7.37255 5.1303 7.48023 4.55574 7.35842C3.98117 7.23661 3.47702 6.89497 3.15096 6.40646C2.82489 5.91795 2.70277 5.32131 2.81067 4.74398C2.91858 4.16664 3.24795 3.65439 3.72845 3.31662Z" fill="#402615"/>
</svg>
