<svg width="10" height="15" viewBox="0 0 10 15" fill="none" xmlns="http://www.w3.org/2000/svg">
<path fill-rule="evenodd" clip-rule="evenodd" d="M8.1857 1.524C7.34548 0.683535 6.21051 0.204038 5.0222 0.1875H4.9772C3.7888 0.203798 2.65365 0.683136 1.81324 1.52354C0.972836 2.36395 0.493498 3.4991 0.4772 4.6875C0.462575 5.53125 0.69995 6.36038 1.15895 7.06913L4.70045 14.25H5.30007L8.84045 7.06913C9.30057 6.36038 9.53795 5.53125 9.5222 4.6875C9.50566 3.49919 9.02616 2.36422 8.1857 1.524V1.524ZM4.91532 1.3125L5.00757 1.32375L5.09082 1.3125C5.97459 1.35099 6.81003 1.72657 7.42541 2.36204C8.04079 2.99751 8.38936 3.84458 8.39945 4.72913C8.40806 5.35691 8.22476 5.97235 7.87407 6.49313L7.85157 6.53137L7.83245 6.57075L4.9997 12.3139L2.16807 6.57637L2.14895 6.5325L2.12645 6.49425C1.77577 5.97348 1.59247 5.35803 1.60107 4.73025C1.61067 3.84468 1.95964 2.99655 2.57606 2.36066C3.19248 1.72478 4.02936 1.34961 4.9142 1.3125H4.91532ZM5.60382 3.75263C5.48098 3.67048 5.34316 3.61334 5.19823 3.58446C5.05331 3.55558 4.90411 3.55553 4.75917 3.58431C4.61422 3.61309 4.47636 3.67014 4.35346 3.7522C4.23056 3.83426 4.12503 3.93972 4.04289 4.06256C3.96074 4.18541 3.9036 4.32323 3.87472 4.46815C3.84585 4.61308 3.84579 4.76227 3.87457 4.90722C3.90336 5.05217 3.9604 5.19003 4.04246 5.31293C4.12452 5.43582 4.22998 5.54136 4.35282 5.6235C4.60092 5.78939 4.90475 5.84994 5.19748 5.79181C5.49022 5.73369 5.74787 5.56166 5.91376 5.31356C6.07965 5.06547 6.1402 4.76164 6.08207 4.4689C6.02395 4.17617 5.85192 3.91852 5.60382 3.75263V3.75263ZM3.72845 2.81662C3.97392 2.64408 4.25142 2.52236 4.54462 2.45865C4.83782 2.39494 5.14081 2.39052 5.43575 2.44564C5.73068 2.50077 6.01162 2.61433 6.26202 2.77964C6.51242 2.94495 6.72722 3.15867 6.8938 3.40823C7.06037 3.65779 7.17535 3.93815 7.23196 4.23281C7.28857 4.52746 7.28568 4.83046 7.22345 5.12399C7.16123 5.41751 7.04092 5.69562 6.86961 5.94195C6.6983 6.18829 6.47946 6.39787 6.22595 6.55838C5.72971 6.87255 5.1303 6.98023 4.55574 6.85842C3.98118 6.73661 3.47702 6.39497 3.15096 5.90646C2.82489 5.41795 2.70277 4.82131 2.81067 4.24398C2.91858 3.66664 3.24795 3.15439 3.72845 2.81662V2.81662Z" fill="#402615"/>
</svg>
