<svg width="41" height="26" viewBox="0 0 41 26" fill="none" xmlns="http://www.w3.org/2000/svg">
<path d="M0.916016 2.49994C0.916016 2.03581 1.12234 1.59069 1.4896 1.2625C1.85686 0.934314 2.35497 0.749939 2.87435 0.749939H38.1244C38.6437 0.749939 39.1418 0.934314 39.5091 1.2625C39.8764 1.59069 40.0827 2.03581 40.0827 2.49994C40.0827 2.96407 39.8764 3.40919 39.5091 3.73737C39.1418 4.06556 38.6437 4.24994 38.1244 4.24994H2.87435C2.35497 4.24994 1.85686 4.06556 1.4896 3.73737C1.12234 3.40919 0.916016 2.96407 0.916016 2.49994Z" fill="#F4EFEA"/>
<path d="M0.916016 13.0558C0.916016 12.5917 1.12234 12.1465 1.4896 11.8183C1.85686 11.4902 2.35497 11.3058 2.87435 11.3058H38.1244C38.6437 11.3058 39.1418 11.4902 39.5091 11.8183C39.8764 12.1465 40.0827 12.5917 40.0827 13.0558C40.0827 13.5199 39.8764 13.965 39.5091 14.2932C39.1418 14.6214 38.6437 14.8058 38.1244 14.8058H2.87435C2.35497 14.8058 1.85686 14.6214 1.4896 14.2932C1.12234 13.965 0.916016 13.5199 0.916016 13.0558Z" fill="#F4EFEA"/>
<path d="M2.87435 21.8619C2.35497 21.8619 1.85686 22.0463 1.4896 22.3744C1.12234 22.7026 0.916016 23.1477 0.916016 23.6119C0.916016 24.076 1.12234 24.5211 1.4896 24.8493C1.85686 25.1775 2.35497 25.3619 2.87435 25.3619H38.1244C38.6437 25.3619 39.1418 25.1775 39.5091 24.8493C39.8764 24.5211 40.0827 24.076 40.0827 23.6119C40.0827 23.1477 39.8764 22.7026 39.5091 22.3744C39.1418 22.0463 38.6437 21.8619 38.1244 21.8619H2.87435Z" fill="#F4EFEA"/>
</svg>
