<svg width="25" height="24" viewBox="0 0 25 24" fill="none" xmlns="http://www.w3.org/2000/svg">
<path d="M8.51569 6.98199C8.24968 6.98199 7.99457 7.08767 7.80647 7.27577C7.61837 7.46387 7.5127 7.71898 7.5127 7.985C7.5127 8.25101 7.61837 8.50613 7.80647 8.69423C7.99457 8.88233 8.24968 8.988 8.51569 8.988H16.4657C16.7317 8.988 16.9868 8.88233 17.1749 8.69423C17.363 8.50613 17.4687 8.25101 17.4687 7.985C17.4687 7.71898 17.363 7.46387 17.1749 7.27577C16.9868 7.08767 16.7317 6.98199 16.4657 6.98199H8.51569Z" fill="#F4EFEA"/>
<path d="M7.51562 12C7.51562 11.448 7.96262 10.997 8.51562 10.997H16.4656C16.7316 10.997 16.9868 11.1027 17.1749 11.2908C17.363 11.4789 17.4686 11.734 17.4686 12C17.4686 12.266 17.363 12.5211 17.1749 12.7092C16.9868 12.8973 16.7316 13.003 16.4656 13.003H8.51562C7.96262 13.003 7.51562 12.553 7.51562 12Z" fill="#F4EFEA"/>
<path d="M8.52498 15.012C8.25884 15.012 8.0036 15.1177 7.8154 15.3059C7.62721 15.4941 7.52148 15.7494 7.52148 16.0155C7.52148 16.2817 7.62721 16.5369 7.8154 16.7251C8.0036 16.9133 8.25884 17.019 8.52498 17.019H16.475C16.7411 17.019 16.9964 16.9133 17.1846 16.7251C17.3728 16.5369 17.4785 16.2817 17.4785 16.0155C17.4785 15.7494 17.3728 15.4941 17.1846 15.3059C16.9964 15.1177 16.7411 15.012 16.475 15.012H8.52498Z" fill="#F4EFEA"/>
<path fill-rule="evenodd" clip-rule="evenodd" d="M3.5 6C3.5 5.20435 3.81607 4.44129 4.37868 3.87868C4.94129 3.31607 5.70435 3 6.5 3H18.5C19.2956 3 20.0587 3.31607 20.6213 3.87868C21.1839 4.44129 21.5 5.20435 21.5 6V18C21.5 18.7956 21.1839 19.5587 20.6213 20.1213C20.0587 20.6839 19.2956 21 18.5 21H6.5C5.70435 21 4.94129 20.6839 4.37868 20.1213C3.81607 19.5587 3.5 18.7956 3.5 18V6ZM6.5 5H18.5C18.7652 5 19.0196 5.10536 19.2071 5.29289C19.3946 5.48043 19.5 5.73478 19.5 6V18C19.5 18.2652 19.3946 18.5196 19.2071 18.7071C19.0196 18.8946 18.7652 19 18.5 19H6.5C6.23478 19 5.98043 18.8946 5.79289 18.7071C5.60536 18.5196 5.5 18.2652 5.5 18V6C5.5 5.73478 5.60536 5.48043 5.79289 5.29289C5.98043 5.10536 6.23478 5 6.5 5Z" fill="#F4EFEA"/>
</svg>
