<svg width="15" height="16" viewBox="0 0 15 16" fill="none" xmlns="http://www.w3.org/2000/svg">
<path d="M9.68557 9.78456C9.58773 9.75256 8.96926 9.47379 9.35573 8.29902H9.35019C10.3576 7.26149 11.1274 5.59195 11.1274 3.94826C11.1274 1.42087 9.4468 0.0959473 7.49357 0.0959473C5.53911 0.0959473 3.86773 1.42025 3.86773 3.94826C3.86773 5.59872 4.63326 7.27502 5.6468 8.3101C6.04188 9.34641 5.33542 9.73102 5.18773 9.78518C3.14219 10.5249 0.742188 11.8732 0.742188 13.2043V13.7033C0.742188 15.5169 4.2585 15.9292 7.51265 15.9292C10.7717 15.9292 14.2437 15.5169 14.2437 13.7033V13.2043C14.2437 11.8332 11.832 10.4953 9.68557 9.78456Z" fill="#545454"/>
</svg>
