<svg width="243" height="243" viewBox="0 0 243 243" fill="none" xmlns="http://www.w3.org/2000/svg">
<path d="M99.7219 211.234C99.893 211.12 100.064 210.977 100.207 210.835C101.12 209.808 101.177 207.84 101.148 207.041C101.12 206.157 101.234 205.301 101.462 204.502C101.975 202.877 102.888 201.85 103.63 201.222C101.833 200.794 99.5793 202.021 98.2672 204.274C96.7555 206.87 97.0978 209.865 98.9803 210.949C99.2655 211.091 99.4937 211.177 99.7219 211.234Z" fill="#F4EFEA"/>
<path d="M104.456 201.565C103.715 202.05 102.716 202.991 102.174 204.702C101.946 205.415 101.861 206.185 101.889 206.956C101.918 208.068 101.832 210.122 100.72 211.348C102.317 211.291 104.085 210.122 105.169 208.211C106.624 205.644 106.31 202.649 104.456 201.565Z" fill="#F4EFEA"/>
<path d="M103.913 208.81C103.656 209.409 103.228 209.836 102.629 210.093C102.515 210.15 102.401 210.207 102.316 210.236C102.287 210.236 102.259 210.236 102.23 210.236C102.173 210.236 102.116 210.179 102.087 210.122C102.059 210.036 102.087 209.922 102.202 209.893C102.287 209.865 102.401 209.808 102.487 209.779C102.972 209.58 103.371 209.152 103.599 208.638C103.628 208.553 103.656 208.496 103.656 208.439C103.656 208.353 103.742 208.268 103.856 208.296C103.941 208.296 104.027 208.382 103.998 208.496C103.998 208.61 103.97 208.724 103.913 208.81Z" fill="#F4EFEA"/>
<path d="M203.375 113.486H39.5967V114.855H203.375V113.486Z" fill="#F4EFEA"/>
<path d="M203.373 170.389H39.5947V171.758H203.373V170.389Z" fill="#F4EFEA"/>
<path d="M159.53 64.5976C156.878 60.2621 149.804 61.8023 149.005 61.9735L147.922 62.2302L147.693 63.3426C147.323 65.2821 145.554 66.3945 143.928 67.022C144.299 64.512 144.784 62.5724 145.098 61.403C145.297 60.6899 144.755 60.0054 144.042 60.0054H98.4913C97.7497 60.0054 97.2363 60.6899 97.4359 61.403C98.0349 63.5137 99.0332 67.8777 99.2329 73.7249C99.5181 82.1392 98.8336 86.3891 100.773 91.4091C102.713 96.4291 110.528 100.508 110.528 100.508H119.855C119.342 100.052 118.971 99.5381 118.686 98.5398C118.258 96.9996 114.322 96.2295 112.268 96.0583C112.068 96.0583 111.983 96.0298 111.983 96.0298C112.068 96.0298 112.182 96.0298 112.268 96.0583C114.236 96.201 125.759 96.9711 129.838 94.5466C134.288 91.894 135.457 90.04 136.027 86.0468C136.94 79.8003 135.371 67.1076 138.48 61.5741H142.93C142.93 61.5741 141.247 65.5103 141.19 70.9297C141.133 76.349 141.39 85.9327 140.021 90.0115C138.595 94.3184 131.949 98.711 128.954 100.536H132.006C132.006 100.536 139.821 96.4862 141.761 91.4376C143.7 86.4176 143.016 82.1677 143.301 73.7534C143.329 72.7266 143.386 71.7568 143.472 70.8441C145.896 70.2166 149.49 68.7049 150.774 65.2251C152.713 64.9398 155.651 64.9969 156.564 66.4516C157.306 67.6495 157.448 69.3324 156.992 70.9867C156.25 73.5823 154.025 75.8926 150.745 77.5184C143.9 80.9127 142.417 85.733 143.558 88.1004C144.299 89.6407 145.64 90.1256 146.752 90.1256C147.18 90.1256 147.579 90.04 147.922 89.9259C148.834 89.6122 149.291 88.6139 148.977 87.7011C148.663 86.7884 147.665 86.332 146.752 86.6458H146.724C146.724 86.6458 146.695 86.6173 146.695 86.5887C146.495 85.9898 147.323 83.0804 152.286 80.6274C156.45 78.5738 159.302 75.4933 160.329 71.928C161.071 69.3038 160.785 66.6512 159.53 64.5976ZM103.682 78.0889C103.682 78.0889 102.912 67.5639 102 65.3677C101.087 63.1999 99.6322 61.6597 99.6322 61.6597H102.912C102.912 61.6597 103.597 65.1395 103.682 67.9347C103.768 70.73 103.682 78.0889 103.682 78.0889ZM150.203 64.7972C150.203 64.7972 149.433 67.0505 147.665 68.2485C145.896 69.4465 143.472 70.074 143.472 70.074L143.672 68.4196C143.672 68.4196 145.953 68.5622 147.636 67.4213C149.062 66.4516 149.718 64.1982 149.718 64.1982C154.168 63.4281 155.965 65.0825 155.965 65.0825C153.683 63.8845 150.203 64.7972 150.203 64.7972ZM147.636 88.4713C147.551 87.9008 148.235 87.3874 148.235 87.3874C148.235 87.3874 148.977 87.9008 148.663 88.6709C148.435 89.2984 147.75 89.8118 146.381 89.7548C145.183 89.6977 144.442 88.728 144.442 88.728C144.442 88.728 145.839 89.4696 146.552 89.4696C147.237 89.441 147.722 89.0417 147.636 88.4713ZM160.186 70.3877C159.701 73.6678 158.332 75.4933 155.936 77.8037C154.425 79.2869 150.232 81.0838 148.635 82.5385C146.438 84.5351 146.096 86.275 146.353 87.1021C146.353 87.1021 146.039 87.4159 146.096 87.7867C146.096 87.7867 145.098 87.7011 145.611 85.1055C145.925 83.5083 147.465 81.8539 149.718 80.6845C156.079 77.4044 157.448 75.8926 159.103 72.7551C160.3 70.4448 159.987 67.4213 159.644 66.1378C159.616 66.1663 160.586 67.678 160.186 70.3877Z" fill="#F4EFEA"/>
<path d="M152.543 101.963H121.253H89.992C89.4786 101.963 89.336 102.59 89.8494 102.761L104.738 107.296L105.765 108.894H121.282H136.798L137.825 107.296L152.714 102.761C153.17 102.59 153.056 101.963 152.543 101.963ZM136.741 106.812L135.942 108.323H120.483C120.483 108.323 126.074 108.124 126.558 107.895C127.443 107.496 126.844 107.182 127.956 107.068C129.04 106.926 134.374 106.783 134.374 106.783L109.587 106.926C109.587 106.926 120.512 106.441 121.025 106.098C121.538 105.756 119.142 105.442 119.285 104.815C119.428 104.159 98.1781 102.989 98.1781 102.989H149.006L136.741 106.812Z" fill="#F4EFEA"/>
<path d="M119.913 58.1229H123.307C123.364 57.8947 122.765 56.7538 122.765 56.7538C123.877 57.3243 123.877 58.1229 123.877 58.1229H126.73C126.73 58.1229 126.701 57.6095 126.216 56.9249C125.731 56.2404 122.907 55.2991 122.508 54.7857C122.109 54.2723 123.079 53.4166 123.079 53.4166C123.079 53.4166 120.825 54.1297 120.027 54.5575C119.228 54.9569 119.941 56.7823 119.941 56.7823C119.941 56.7823 119.171 55.8411 119.342 54.8142C119.513 53.7874 123.107 52.7321 124.733 52.3042C126.359 51.8764 127.699 50.0509 127.699 50.0509C126.901 51.5626 124.961 52.5039 124.961 52.5039C125.275 52.5609 126.672 52.8462 128.27 50.8496C129.867 48.853 129.211 46.4285 129.04 45.0024C128.869 43.5762 126.587 41.6367 125.475 41.1803C124.362 40.7524 123.735 40.0964 123.735 40.0964C123.735 40.0964 123.478 40.5813 123.82 40.9521C124.162 41.3229 125.132 42.1215 125.132 42.1215C125.132 42.1215 124.733 42.0645 123.535 41.2659C122.337 40.4387 125.189 37.5579 124.847 36.1032C124.505 34.6485 122.137 34.6485 121.51 34.1351C120.882 33.5932 122.366 31.9103 122.366 31.9103C121.196 32.2526 119.257 34.7626 120.939 35.2475C122.622 35.7324 122.679 37.1871 122.137 38.7273C121.595 40.2676 120.483 40.4102 121.51 42.6064C122.537 44.7742 124.961 44.603 124.961 44.603C124.134 43.5762 123.022 42.6064 123.022 42.6064C123.022 42.6064 123.022 42.6064 124.619 43.5762C126.216 44.546 127.443 46.999 125.788 49.7086C124.105 52.4183 120.711 50.4217 118.772 53.1884C116.889 55.8696 119.913 58.1229 119.913 58.1229Z" fill="#F4EFEA"/>
<path d="M54.3405 86.4746H35.6295C35.2872 86.4746 35.002 86.1894 35.002 85.8471C35.002 85.5048 35.2872 85.2196 35.6295 85.2196H54.3405C54.6828 85.2196 54.968 85.5048 54.968 85.8471C54.968 86.1894 54.6828 86.4746 54.3405 86.4746Z" fill="#F4EFEA"/>
<path d="M65.4374 86.4746H57.9644C57.6221 86.4746 57.3369 86.1894 57.3369 85.8471C57.3369 85.5048 57.6221 85.2196 57.9644 85.2196H65.4374C65.7797 85.2196 66.0649 85.5048 66.0649 85.8471C66.0935 86.1894 65.8082 86.4746 65.4374 86.4746Z" fill="#F4EFEA"/>
<path d="M69.3142 86.4746H65.4351C65.0928 86.4746 64.8076 86.1894 64.8076 85.8471C64.8076 85.5048 65.0928 85.2196 65.4351 85.2196H69.3142C69.6565 85.2196 69.9417 85.5048 69.9417 85.8471C69.9703 86.1894 69.685 86.4746 69.3142 86.4746Z" fill="#F4EFEA"/>
<path d="M85.8571 86.4746H82.5484C82.2061 86.4746 81.9209 86.1894 81.9209 85.8471C81.9209 85.5048 82.2061 85.2196 82.5484 85.2196H85.8571C86.1993 85.2196 86.4846 85.5048 86.4846 85.8471C86.4846 86.1894 86.1993 86.4746 85.8571 86.4746Z" fill="#F4EFEA"/>
<path d="M70.1721 48.5393C70.0009 48.5393 69.8583 48.4823 69.7157 48.3397L66.1789 44.8028C65.9222 44.5461 65.9222 44.1468 66.1789 43.8901C66.4356 43.6334 66.8349 43.6334 67.0916 43.8901L70.6284 47.4269C70.8851 47.6837 70.8851 48.083 70.6284 48.3397C70.5143 48.4823 70.3432 48.5393 70.1721 48.5393Z" fill="#F4EFEA"/>
<path d="M84.0915 62.4585C83.9204 62.4585 83.7778 62.4015 83.6352 62.2589L73.424 52.0476C73.1673 51.7909 73.1673 51.3916 73.424 51.1349C73.6807 50.8782 74.08 50.8782 74.3367 51.1349L84.5479 61.3461C84.8046 61.6028 84.8046 62.0021 84.5479 62.2589C84.4053 62.4015 84.2627 62.4585 84.0915 62.4585Z" fill="#F4EFEA"/>
<path d="M88.7672 67.1361C88.5961 67.1361 88.4535 67.0791 88.3109 66.9365L85.4015 64.0271C85.1448 63.7704 85.1448 63.3711 85.4015 63.1144C85.6582 62.8577 86.0575 62.8577 86.3143 63.1144L89.2236 66.0237C89.4803 66.2804 89.4803 66.6798 89.2236 66.9365C89.081 67.0506 88.9098 67.1361 88.7672 67.1361Z" fill="#F4EFEA"/>
<path d="M64.4951 68.7906C64.4095 68.7906 64.3239 68.762 64.2669 68.7335L49.1783 62.6011C48.8645 62.4585 48.6934 62.0877 48.836 61.7739C48.9786 61.4602 49.3494 61.289 49.6632 61.4316L64.7518 67.5641C65.0655 67.7067 65.2367 68.0775 65.0941 68.3912C64.98 68.6194 64.7518 68.7906 64.4951 68.7906Z" fill="#F4EFEA"/>
<path d="M77.2149 73.9246C77.1293 73.9246 77.0438 73.8961 76.9867 73.8676L68.3443 70.3593C68.0305 70.2166 67.8594 69.8458 68.002 69.5321C68.1446 69.2183 68.5154 69.0472 68.8292 69.1898L77.4716 72.6981C77.7854 72.8407 77.9565 73.2115 77.8139 73.5253C77.6998 73.782 77.4716 73.9246 77.2149 73.9246Z" fill="#F4EFEA"/>
<path d="M83.4906 76.4918C83.4051 76.4918 83.3195 76.4632 83.2625 76.4347L80.2105 75.1797C79.8967 75.0371 79.7256 74.6663 79.8682 74.3525C80.0108 74.0388 80.3816 73.8676 80.6954 74.0103L83.7473 75.2653C84.0611 75.4079 84.2322 75.7787 84.0896 76.0924C83.9755 76.3206 83.7473 76.4918 83.4906 76.4918Z" fill="#F4EFEA"/>
<path d="M84.861 31.5111C84.6043 31.5111 84.3761 31.3685 84.262 31.1118L82.7217 27.4608C82.5791 27.1471 82.7503 26.7478 83.064 26.6337C83.3778 26.4911 83.7771 26.6622 83.8912 26.9759L85.4314 30.6269C85.574 30.9406 85.4029 31.3399 85.0891 31.454C85.0321 31.4826 84.9465 31.5111 84.861 31.5111Z" fill="#F4EFEA"/>
<path d="M88.7662 40.6955C88.5095 40.6955 88.2813 40.5529 88.1672 40.2962L85.2579 33.4221C85.1153 33.1084 85.2864 32.7091 85.6002 32.595C85.9139 32.4524 86.3132 32.6235 86.4273 32.9372L89.3366 39.8113C89.4793 40.125 89.3081 40.5243 88.9944 40.6384C88.9373 40.6955 88.8518 40.6955 88.7662 40.6955Z" fill="#F4EFEA"/>
<path d="M93.6467 52.2472C93.39 52.2472 93.1618 52.1045 93.0477 51.8478L89.9102 44.4604C89.7676 44.1466 89.9387 43.7473 90.2525 43.6332C90.5662 43.4906 90.9656 43.6618 91.0797 43.9755L94.2172 51.363C94.3598 51.6767 94.1887 52.076 93.8749 52.1901C93.7893 52.2186 93.7323 52.2472 93.6467 52.2472Z" fill="#F4EFEA"/>
<path d="M57.9637 75.8642C57.9066 75.8642 57.8781 75.8642 57.8211 75.8642L41.9053 72.4985C41.563 72.413 41.3348 72.0992 41.4204 71.7284C41.506 71.3861 41.8197 71.1579 42.1905 71.2435L58.1063 74.6092C58.4486 74.6948 58.6768 75.0085 58.5912 75.3793C58.5341 75.6646 58.2489 75.8642 57.9637 75.8642Z" fill="#F4EFEA"/>
<path d="M79.8671 80.4849C79.8101 80.4849 79.7815 80.4849 79.7245 80.4849L63.3809 77.0337C63.0386 76.9481 62.8104 76.6343 62.896 76.2635C62.9815 75.9213 63.2953 75.6931 63.6661 75.7787L80.0097 79.2299C80.352 79.3155 80.5802 79.6293 80.4946 80.0001C80.409 80.2853 80.1523 80.4849 79.8671 80.4849Z" fill="#F4EFEA"/>
<path d="M86.8851 81.9681C86.828 81.9681 86.7995 81.9681 86.7424 81.9681L82.7207 81.1124C82.3784 81.0268 82.1502 80.7131 82.2358 80.3423C82.3214 80 82.6351 79.7718 83.0059 79.8574L87.0277 80.7131C87.3699 80.7987 87.5981 81.1124 87.5126 81.4832C87.427 81.7684 87.1703 81.9681 86.8851 81.9681Z" fill="#F4EFEA"/>
<path d="M77.2154 38.9841C77.0157 38.9841 76.7875 38.87 76.6734 38.6989L75.9033 37.5009C75.7036 37.2157 75.7892 36.8163 76.103 36.6167C76.3882 36.417 76.7875 36.5026 76.9872 36.8163L77.7573 38.0143C77.957 38.2995 77.8714 38.6989 77.5576 38.8985C77.4435 38.9556 77.3294 38.9841 77.2154 38.9841Z" fill="#F4EFEA"/>
<path d="M82.5208 47.1701C82.3211 47.1701 82.0929 47.056 81.9788 46.8849L79.8681 43.6333C79.6685 43.3481 79.7541 42.9487 80.0678 42.7491C80.353 42.5494 80.7524 42.635 80.952 42.9487L83.0627 46.2003C83.2624 46.4856 83.1768 46.8849 82.8631 47.0846C82.7775 47.1131 82.6349 47.1701 82.5208 47.1701Z" fill="#F4EFEA"/>
<path d="M90.3919 59.2354C90.1922 59.2354 89.964 59.1213 89.8499 58.9502L87.7392 55.6986C87.5396 55.4134 87.6251 55.014 87.9389 54.8144C88.2241 54.6147 88.6235 54.7003 88.8231 55.014L90.9338 58.2657C91.1335 58.5509 91.0479 58.9502 90.7341 59.1499C90.6201 59.2069 90.506 59.2354 90.3919 59.2354Z" fill="#F4EFEA"/>
<path d="M64.6088 57.0961C64.4947 57.0961 64.3521 57.0676 64.238 56.9821L52.0016 48.7389C51.7164 48.5393 51.6308 48.14 51.8305 47.8547C52.0302 47.5695 52.4295 47.4839 52.7147 47.6836L64.951 55.9267C65.2363 56.1264 65.3218 56.5257 65.1222 56.8109C65.0366 57.0106 64.8084 57.0961 64.6088 57.0961Z" fill="#F4EFEA"/>
<path d="M76.7013 65.2538C76.5872 65.2538 76.4446 65.2253 76.3305 65.1397L67.9733 59.4922C67.6881 59.2925 67.6025 58.8932 67.8022 58.608C68.0018 58.3227 68.4012 58.2372 68.6864 58.4368L77.0721 64.0844C77.3574 64.284 77.4429 64.6833 77.2433 64.9686C77.1006 65.1682 76.901 65.2538 76.7013 65.2538Z" fill="#F4EFEA"/>
<path d="M81.4665 68.4768C81.3524 68.4768 81.2098 68.4483 81.0957 68.3627L78.443 66.5658C78.1578 66.3661 78.0722 65.9668 78.2719 65.6816C78.4716 65.3963 78.8709 65.3108 79.1561 65.5104L81.8087 67.3074C82.094 67.507 82.1795 67.9064 81.9799 68.1916C81.8658 68.3912 81.6661 68.4768 81.4665 68.4768Z" fill="#F4EFEA"/>
<path d="M88.2554 73.0691C88.1413 73.0691 87.9987 73.0406 87.8846 72.955L85.1178 71.0725C84.8326 70.8728 84.747 70.4735 84.9467 70.1883C85.1464 69.903 85.5457 69.8175 85.8309 70.0171L88.5976 71.8997C88.8829 72.0993 88.9684 72.4986 88.7688 72.7839C88.6832 72.9835 88.4835 73.0691 88.2554 73.0691Z" fill="#F4EFEA"/>
<path d="M99.9483 44.4034C99.6346 44.4034 99.3779 44.2038 99.3208 43.89L96.3544 28.5732C96.2974 28.2309 96.5256 27.8887 96.8679 27.8316C97.2101 27.7746 97.5524 28.0028 97.6094 28.345L100.576 43.6618C100.633 44.0041 100.405 44.3464 100.062 44.4034C100.034 44.4034 99.9769 44.4034 99.9483 44.4034Z" fill="#F4EFEA"/>
<path d="M101.144 50.5358C100.83 50.5358 100.574 50.3361 100.517 50.0224L99.9462 47.056C99.8892 46.7137 100.117 46.3714 100.46 46.3144C100.802 46.2574 101.144 46.4855 101.201 46.8278L101.772 49.7942C101.829 50.1365 101.601 50.4787 101.258 50.5358C101.23 50.5358 101.173 50.5358 101.144 50.5358Z" fill="#F4EFEA"/>
<path d="M209.132 86.6175H190.421C190.079 86.6175 189.794 86.3323 189.794 85.99C189.794 85.6477 190.079 85.3625 190.421 85.3625H209.132C209.475 85.3625 209.76 85.6477 209.76 85.99C209.76 86.3323 209.503 86.6175 209.132 86.6175Z" fill="#F4EFEA"/>
<path d="M186.8 86.6175H179.327C178.984 86.6175 178.699 86.3323 178.699 85.99C178.699 85.6477 178.984 85.3625 179.327 85.3625H186.8C187.142 85.3625 187.427 85.6477 187.427 85.99C187.427 86.3323 187.171 86.6175 186.8 86.6175Z" fill="#F4EFEA"/>
<path d="M179.326 86.6175H175.447C175.105 86.6175 174.819 86.3323 174.819 85.99C174.819 85.6477 175.105 85.3625 175.447 85.3625H179.326C179.668 85.3625 179.953 85.6477 179.953 85.99C179.953 86.3323 179.668 86.6175 179.326 86.6175Z" fill="#F4EFEA"/>
<path d="M162.242 86.6175H158.905C158.563 86.6175 158.277 86.3323 158.277 85.99C158.277 85.6477 158.563 85.3625 158.905 85.3625H162.242C162.584 85.3625 162.87 85.6477 162.87 85.99C162.87 86.3323 162.584 86.6175 162.242 86.6175Z" fill="#F4EFEA"/>
<path d="M174.592 48.682C174.421 48.682 174.279 48.6249 174.136 48.4823C173.879 48.2256 173.879 47.8263 174.136 47.5696L177.673 44.0327C177.929 43.776 178.329 43.776 178.585 44.0327C178.842 44.2894 178.842 44.6888 178.585 44.9455L175.049 48.4823C174.906 48.6249 174.763 48.682 174.592 48.682Z" fill="#F4EFEA"/>
<path d="M160.672 62.6012C160.501 62.6012 160.359 62.5442 160.216 62.4016C159.959 62.1448 159.959 61.7455 160.216 61.4888L170.427 51.2776C170.684 51.0209 171.083 51.0209 171.34 51.2776C171.597 51.5343 171.597 51.9336 171.34 52.1903L161.129 62.4016C161.015 62.5156 160.843 62.6012 160.672 62.6012Z" fill="#F4EFEA"/>
<path d="M180.268 68.9333C180.011 68.9333 179.783 68.7907 179.669 68.534C179.526 68.2202 179.698 67.8209 180.011 67.7068L195.1 61.5744C195.414 61.4318 195.813 61.6029 195.927 61.9167C196.07 62.2304 195.899 62.6298 195.585 62.7438L180.496 68.8763C180.439 68.9048 180.354 68.9333 180.268 68.9333Z" fill="#F4EFEA"/>
<path d="M167.577 74.0674C167.32 74.0674 167.092 73.9248 166.978 73.6681C166.835 73.3543 167.006 72.955 167.32 72.8409L175.962 69.3326C176.276 69.19 176.675 69.3611 176.789 69.6749C176.932 69.9886 176.761 70.3879 176.447 70.502L167.805 74.0103C167.719 74.0674 167.634 74.0674 167.577 74.0674Z" fill="#F4EFEA"/>
<path d="M161.301 76.6344C161.044 76.6344 160.816 76.4918 160.702 76.2351C160.56 75.9213 160.731 75.522 161.044 75.4079L164.096 74.1529C164.41 74.0103 164.81 74.1814 164.924 74.4952C165.066 74.8089 164.895 75.2082 164.581 75.3223L161.529 76.5773C161.444 76.6059 161.358 76.6344 161.301 76.6344Z" fill="#F4EFEA"/>
<path d="M159.905 31.6253C159.819 31.6253 159.734 31.5968 159.648 31.5682C159.334 31.4256 159.163 31.0548 159.306 30.7411L160.846 27.0901C160.989 26.7764 161.359 26.6052 161.673 26.7479C161.987 26.8905 162.158 27.2613 162.015 27.575L160.475 31.226C160.39 31.4827 160.161 31.6253 159.905 31.6253Z" fill="#F4EFEA"/>
<path d="M156.023 40.8383C155.937 40.8383 155.852 40.8098 155.766 40.7813C155.452 40.6386 155.281 40.2678 155.424 39.9541L158.333 33.0801C158.476 32.7663 158.847 32.5952 159.16 32.7378C159.474 32.8804 159.645 33.2512 159.503 33.565L156.593 40.439C156.508 40.6957 156.251 40.8383 156.023 40.8383Z" fill="#F4EFEA"/>
<path d="M151.147 52.3614C151.061 52.3614 150.976 52.3328 150.89 52.3043C150.576 52.1617 150.405 51.7909 150.548 51.4771L153.685 44.0897C153.828 43.776 154.199 43.6048 154.513 43.7474C154.826 43.89 154.997 44.2609 154.855 44.5746L151.717 51.962C151.632 52.2187 151.375 52.3614 151.147 52.3614Z" fill="#F4EFEA"/>
<path d="M186.799 76.0069C186.514 76.0069 186.228 75.8073 186.171 75.4935C186.086 75.1513 186.314 74.809 186.656 74.7234L202.572 71.3577C202.914 71.2721 203.257 71.5003 203.342 71.8426C203.428 72.1849 203.2 72.5271 202.857 72.6127L186.941 75.9784C186.913 76.0069 186.856 76.0069 186.799 76.0069Z" fill="#F4EFEA"/>
<path d="M164.924 80.6277C164.639 80.6277 164.353 80.428 164.296 80.1143C164.211 79.772 164.439 79.4297 164.781 79.3441L181.125 75.8929C181.467 75.8073 181.809 76.0355 181.895 76.3777C181.981 76.72 181.752 77.0623 181.41 77.1479L165.066 80.5991C165.009 80.6277 164.952 80.6277 164.924 80.6277Z" fill="#F4EFEA"/>
<path d="M157.906 82.1109C157.621 82.1109 157.336 81.9113 157.279 81.5975C157.193 81.2553 157.421 80.913 157.764 80.8274L161.785 79.9717C162.128 79.8862 162.47 80.1143 162.556 80.4566C162.641 80.7989 162.413 81.1412 162.071 81.2267L158.049 82.0824C157.992 82.1109 157.935 82.1109 157.906 82.1109Z" fill="#F4EFEA"/>
<path d="M167.576 39.1268C167.462 39.1268 167.348 39.0983 167.234 39.0127C166.949 38.813 166.863 38.4137 167.034 38.1285L167.804 36.9305C168.004 36.6453 168.403 36.5597 168.688 36.7309C168.974 36.9305 169.059 37.3299 168.888 37.6151L168.118 38.813C167.975 39.0127 167.776 39.1268 167.576 39.1268Z" fill="#F4EFEA"/>
<path d="M162.242 47.2843C162.128 47.2843 162.014 47.2558 161.9 47.1702C161.615 46.9706 161.529 46.5713 161.7 46.286L163.811 43.0344C164.01 42.7492 164.41 42.6636 164.695 42.8348C164.98 43.0344 165.066 43.4337 164.895 43.719L162.784 46.9706C162.67 47.1988 162.442 47.2843 162.242 47.2843Z" fill="#F4EFEA"/>
<path d="M154.396 59.3781C154.282 59.3781 154.168 59.3496 154.054 59.264C153.769 59.0643 153.683 58.665 153.854 58.3798L155.965 55.1282C156.165 54.8429 156.564 54.7574 156.849 54.9285C157.135 55.1282 157.22 55.5275 157.049 55.8127L154.938 59.0643C154.796 59.264 154.596 59.3781 154.396 59.3781Z" fill="#F4EFEA"/>
<path d="M180.155 57.2388C179.955 57.2388 179.755 57.1533 179.613 56.9536C179.413 56.6684 179.499 56.2691 179.784 56.0694L192.02 47.8263C192.305 47.6266 192.705 47.7122 192.904 47.9974C193.104 48.2827 193.018 48.682 192.733 48.8816L180.497 57.1248C180.411 57.2103 180.269 57.2388 180.155 57.2388Z" fill="#F4EFEA"/>
<path d="M168.062 65.3964C167.862 65.3964 167.663 65.3108 167.52 65.1111C167.32 64.8259 167.406 64.4266 167.691 64.2269L176.077 58.5794C176.362 58.3797 176.761 58.4653 176.961 58.7505C177.161 59.0358 177.075 59.4351 176.79 59.6347L168.404 65.2823C168.319 65.3678 168.204 65.3964 168.062 65.3964Z" fill="#F4EFEA"/>
<path d="M163.297 68.6195C163.098 68.6195 162.898 68.5339 162.755 68.3343C162.556 68.0491 162.641 67.6497 162.926 67.4501L165.579 65.6531C165.864 65.4535 166.264 65.539 166.463 65.8243C166.663 66.1095 166.577 66.5088 166.292 66.7085L163.64 68.5054C163.554 68.591 163.411 68.6195 163.297 68.6195Z" fill="#F4EFEA"/>
<path d="M144.816 44.5462C144.787 44.5462 144.73 44.5462 144.702 44.5462C144.36 44.4891 144.131 44.1469 144.188 43.8046L147.155 28.4878C147.212 28.1455 147.554 27.9173 147.896 27.9744C148.239 28.0314 148.467 28.3737 148.41 28.716L145.443 44.0328C145.386 44.318 145.13 44.5462 144.816 44.5462Z" fill="#F4EFEA"/>
<path d="M143.645 50.6786C143.617 50.6786 143.559 50.6786 143.531 50.6786C143.189 50.6215 142.96 50.2792 143.018 49.937L143.588 46.9706C143.645 46.6283 143.987 46.4001 144.33 46.4572C144.672 46.5142 144.9 46.8565 144.843 47.1988L144.273 50.1651C144.187 50.4504 143.93 50.6786 143.645 50.6786Z" fill="#F4EFEA"/>
<path d="M106.481 49.1953C106.138 49.1953 105.882 48.9386 105.853 48.5963L104.142 28.4876C104.113 28.1453 104.37 27.8316 104.712 27.8031C105.055 27.7745 105.368 28.0313 105.397 28.3735L107.108 48.4822C107.137 48.8245 106.88 49.1382 106.538 49.1667C106.538 49.1953 106.509 49.1953 106.481 49.1953Z" fill="#F4EFEA"/>
<path d="M138.455 49.1953C138.426 49.1953 138.398 49.1953 138.369 49.1953C138.027 49.1383 137.77 48.8245 137.827 48.4823L139.453 37.6721C139.51 37.3298 139.824 37.0731 140.166 37.1302C140.508 37.1872 140.765 37.5009 140.708 37.8432L139.082 48.6534C139.054 48.9672 138.769 49.1953 138.455 49.1953Z" fill="#F4EFEA"/>
<path d="M140.737 33.9641C140.709 33.9641 140.68 33.9641 140.651 33.9641C140.309 33.9071 140.052 33.5933 140.11 33.2511L140.823 28.5163C140.88 28.174 141.193 27.9173 141.536 27.9743C141.878 28.0314 142.135 28.3451 142.078 28.6874L141.365 33.4222C141.336 33.736 141.051 33.9641 140.737 33.9641Z" fill="#F4EFEA"/>
<path d="M121.855 0.649231C55.0826 0.649231 0.974609 54.7857 0.974609 121.529C0.974609 188.273 55.1111 242.41 121.855 242.41C188.598 242.41 242.735 188.273 242.735 121.529C242.735 54.7857 188.598 0.649231 121.855 0.649231ZM238.97 113.514C239.027 114.484 239.084 115.483 239.141 116.452C239.17 117.108 238.656 117.679 237.972 117.707C237.943 117.707 237.915 117.707 237.915 117.707C237.258 117.707 236.745 117.194 236.717 116.538C236.688 115.568 236.631 114.598 236.545 113.657C236.488 113.001 237.002 112.402 237.686 112.374C238.342 112.316 238.941 112.83 238.97 113.514ZM238.171 105.671C238.314 106.64 238.428 107.61 238.542 108.58C238.628 109.236 238.143 109.835 237.458 109.921C237.401 109.949 237.344 109.949 237.316 109.949C236.717 109.949 236.175 109.493 236.118 108.865C236.003 107.924 235.889 106.954 235.775 106.013C235.69 105.357 236.146 104.729 236.802 104.644C237.458 104.558 238.086 105.015 238.171 105.671ZM236.831 97.9694C237.03 98.9392 237.201 99.909 237.373 100.85C237.487 101.506 237.059 102.134 236.403 102.248C236.346 102.276 236.289 102.276 236.203 102.276C235.633 102.276 235.119 101.877 235.005 101.278C234.834 100.337 234.663 99.3956 234.463 98.4543C234.321 97.7983 234.748 97.1708 235.405 97.0282C236.061 96.8856 236.688 97.3134 236.831 97.9694ZM235.034 90.3538C235.29 91.2951 235.547 92.2363 235.775 93.2061C235.946 93.8621 235.547 94.5182 234.891 94.6608C234.777 94.6608 234.691 94.6893 234.606 94.6893C234.064 94.6893 233.579 94.3185 233.436 93.7766C233.208 92.8353 232.952 91.9226 232.695 90.9813C232.524 90.3253 232.894 89.6693 233.551 89.4981C234.207 89.327 234.863 89.6978 235.034 90.3538ZM232.695 82.8238C233.009 83.7365 233.322 84.6778 233.636 85.619C233.836 86.2465 233.493 86.9311 232.866 87.1307C232.723 87.1878 232.609 87.2163 232.467 87.2163C231.953 87.2163 231.468 86.9025 231.326 86.3606C231.04 85.4479 230.727 84.5351 230.413 83.6224C230.185 82.9949 230.527 82.3104 231.155 82.0822C231.782 81.854 232.467 82.1963 232.695 82.8238ZM229.871 75.5219C230.242 76.4061 230.641 77.3188 230.983 78.2316C231.24 78.8591 230.926 79.5436 230.299 79.8003C230.156 79.8859 230.014 79.9144 229.843 79.9144C229.358 79.9144 228.901 79.6292 228.73 79.1443C228.388 78.2601 228.017 77.3759 227.646 76.4917C227.39 75.8642 227.675 75.1511 228.274 74.8944C228.901 74.6377 229.614 74.9229 229.871 75.5219ZM224.965 67.9348C225.564 67.621 226.277 67.8778 226.591 68.4767C227.019 69.3324 227.475 70.2452 227.874 71.1008C228.16 71.6998 227.903 72.4414 227.304 72.7267C227.104 72.7837 226.933 72.8122 226.762 72.8122C226.306 72.8122 225.878 72.5555 225.678 72.1277C225.279 71.272 224.851 70.3878 224.423 69.5606C224.109 68.9616 224.366 68.2486 224.965 67.9348ZM221.143 61.1749C221.713 60.8326 222.455 61.0323 222.797 61.6027C223.282 62.4299 223.796 63.2856 224.281 64.1412C224.594 64.7117 224.395 65.4533 223.824 65.7956C223.596 65.8811 223.396 65.9382 223.197 65.9382C222.769 65.9382 222.37 65.71 222.141 65.3107C221.685 64.4835 221.2 63.6278 220.715 62.8292C220.373 62.2587 220.573 61.5171 221.143 61.1749ZM216.865 54.7002C217.407 54.3294 218.177 54.472 218.547 55.0139C219.089 55.8126 219.66 56.6397 220.173 57.4669C220.544 58.0373 220.373 58.7789 219.831 59.1497C219.631 59.2638 219.403 59.3209 219.175 59.3209C218.776 59.3209 218.405 59.1212 218.148 58.7789C217.635 57.9803 217.093 57.1817 216.551 56.383C216.18 55.8411 216.323 55.071 216.865 54.7002ZM212.187 48.4822C212.7 48.0543 213.47 48.1684 213.898 48.6818C214.497 49.4519 215.096 50.2221 215.695 51.0207C216.094 51.5626 215.98 52.3042 215.467 52.7036C215.239 52.9032 214.982 52.9603 214.725 52.9603C214.355 52.9603 213.984 52.7891 213.756 52.4754C213.185 51.7053 212.586 50.9351 211.987 50.1935C211.559 49.6801 211.673 48.91 212.187 48.4822ZM207.11 42.635C207.595 42.1786 208.365 42.2356 208.821 42.7205C209.477 43.4336 210.133 44.1752 210.761 44.9168C211.189 45.4302 211.131 46.2003 210.647 46.6282C210.418 46.8278 210.133 46.9419 209.848 46.9419C209.506 46.9419 209.163 46.7993 208.935 46.5141C208.308 45.801 207.68 45.0594 207.024 44.3463C206.568 43.8615 206.625 43.0913 207.11 42.635ZM201.662 37.13C202.118 36.6452 202.888 36.6452 203.373 37.1015C204.086 37.7861 204.771 38.4706 205.455 39.1837C205.912 39.6686 205.912 40.4387 205.455 40.8951C205.199 41.1233 204.913 41.2373 204.6 41.2373C204.286 41.2373 203.972 41.1233 203.744 40.8665C203.088 40.182 202.375 39.4974 201.69 38.8414C201.206 38.3851 201.206 37.6149 201.662 37.13ZM195.843 31.9674C196.271 31.454 197.041 31.3969 197.555 31.8248C198.296 32.4523 199.038 33.1083 199.779 33.7643C200.293 34.2207 200.321 34.9623 199.893 35.4757C199.637 35.7324 199.294 35.875 198.952 35.875C198.667 35.875 198.382 35.7609 198.154 35.5613C197.44 34.9338 196.699 34.3063 195.986 33.6788C195.472 33.2509 195.415 32.4808 195.843 31.9674ZM189.682 27.2326C190.082 26.6907 190.823 26.5766 191.365 26.9759C192.164 27.5463 192.934 28.1453 193.704 28.7443C194.246 29.1436 194.331 29.9137 193.932 30.4557C193.704 30.7694 193.362 30.9121 192.991 30.9121C192.734 30.9121 192.477 30.8265 192.249 30.6553C191.508 30.0564 190.709 29.4859 189.939 28.9154C189.397 28.5161 189.283 27.7745 189.682 27.2326ZM183.208 22.9256C183.578 22.3552 184.32 22.184 184.89 22.5548C185.718 23.0968 186.545 23.6387 187.343 24.1806C187.885 24.5514 188.056 25.3216 187.657 25.8635C187.457 26.1772 187.087 26.3769 186.687 26.3769C186.459 26.3769 186.231 26.3199 186.003 26.1772C185.204 25.6353 184.406 25.1219 183.578 24.6085C183.008 24.2377 182.837 23.4961 183.208 22.9256ZM176.533 18.9895C176.847 18.3905 177.589 18.1908 178.188 18.5046C179.043 18.9895 179.899 19.4744 180.755 19.9592C181.325 20.3015 181.525 21.0431 181.182 21.6136C180.926 22.0129 180.526 22.2411 180.127 22.2411C179.927 22.2411 179.699 22.184 179.528 22.0699C178.701 21.5851 177.845 21.1002 177.018 20.6438C176.419 20.33 176.219 19.5885 176.533 18.9895ZM169.517 15.5952C169.802 14.9963 170.515 14.711 171.114 14.9963C171.998 15.3956 172.882 15.8234 173.766 16.2798C174.365 16.565 174.622 17.3066 174.308 17.9056C174.137 18.3049 173.709 18.5616 173.253 18.5616C173.082 18.5616 172.882 18.5331 172.711 18.4475C171.855 18.0197 170.971 17.5918 170.116 17.1925C169.517 16.9073 169.231 16.1942 169.517 15.5952ZM162.357 12.6289C162.585 12.0014 163.299 11.6876 163.926 11.9443C164.839 12.2866 165.752 12.6574 166.664 13.0282C167.292 13.2849 167.577 13.998 167.32 14.5969C167.092 15.0533 166.664 15.3385 166.179 15.3385C166.037 15.3385 165.866 15.31 165.723 15.253C164.839 14.8822 163.926 14.5399 163.042 14.1976C162.414 13.9694 162.101 13.2564 162.357 12.6289ZM154.941 10.1759C155.141 9.54838 155.826 9.17758 156.453 9.37725C157.394 9.66247 158.336 9.97623 159.277 10.29C159.904 10.4896 160.247 11.2027 160.047 11.8302C159.876 12.2866 159.391 12.6289 158.877 12.6289C158.763 12.6289 158.621 12.6003 158.478 12.5718C157.565 12.2581 156.653 11.9728 155.74 11.6876C155.112 11.4879 154.742 10.8034 154.941 10.1759ZM147.411 8.23633C147.554 7.5803 148.21 7.18098 148.866 7.32359C149.807 7.55178 150.777 7.77996 151.718 8.03667C152.374 8.20781 152.745 8.86383 152.574 9.51986C152.46 10.0333 151.975 10.4041 151.433 10.4041C151.319 10.4041 151.233 10.4041 151.119 10.3755C150.178 10.1188 149.265 9.89066 148.324 9.691C147.668 9.54838 147.269 8.89236 147.411 8.23633ZM139.824 6.72461C139.938 6.06859 140.566 5.61222 141.222 5.72631C142.192 5.89745 143.161 6.06859 144.131 6.23972C144.787 6.35382 145.215 7.00984 145.101 7.66587C144.958 8.26485 144.445 8.66417 143.874 8.66417C143.789 8.66417 143.732 8.66417 143.646 8.63565C142.705 8.46451 141.764 8.29337 140.822 8.12224C140.166 8.00814 139.71 7.38064 139.824 6.72461ZM133.435 4.75653C134.405 4.8421 135.403 4.95619 136.373 5.07028C137.029 5.15585 137.514 5.75483 137.428 6.41086C137.343 7.00984 136.801 7.46621 136.202 7.46621C136.145 7.46621 136.116 7.46621 136.059 7.46621C135.118 7.35212 134.148 7.23803 133.207 7.15246C132.551 7.09541 132.066 6.49643 132.123 5.8404C132.18 5.18438 132.779 4.69949 133.435 4.75653ZM125.62 4.24312C126.59 4.27164 127.588 4.32869 128.558 4.38573C129.214 4.41426 129.727 4.98472 129.699 5.66927C129.642 6.26825 129.128 6.78166 128.472 6.78166C128.444 6.78166 128.415 6.78166 128.415 6.78166C127.474 6.72461 126.504 6.69609 125.534 6.66757C124.878 6.63904 124.336 6.09711 124.365 5.41256C124.393 4.75653 124.964 4.2146 125.62 4.24312ZM117.776 4.24312C118.746 4.2146 119.744 4.18607 120.714 4.18607C121.398 4.18607 121.94 4.72801 121.94 5.38404C121.94 6.04006 121.398 6.61052 120.742 6.61052C119.773 6.61052 118.803 6.63904 117.862 6.66757C117.833 6.66757 117.833 6.66757 117.804 6.66757C117.148 6.66757 116.607 6.15415 116.607 5.49813C116.578 4.8421 117.12 4.27164 117.776 4.24312ZM109.961 4.75653C110.93 4.67096 111.929 4.58539 112.899 4.49983C113.555 4.44278 114.154 4.95619 114.211 5.61222C114.268 6.26825 113.754 6.86723 113.098 6.92427C112.157 7.00984 111.187 7.09541 110.217 7.18098C110.132 7.18098 110.103 7.18098 110.075 7.18098C109.447 7.18098 108.934 6.72461 108.877 6.09711C108.82 5.44108 109.305 4.8421 109.961 4.75653ZM102.174 5.81188C103.144 5.64074 104.113 5.49813 105.083 5.35551C105.739 5.26994 106.367 5.72631 106.452 6.38234C106.538 7.03837 106.082 7.66587 105.426 7.75144C104.484 7.89405 103.515 8.03667 102.573 8.2078C102.516 8.2078 102.431 8.2078 102.374 8.2078C101.803 8.2078 101.29 7.77996 101.176 7.2095C101.062 6.55348 101.518 5.92597 102.174 5.81188ZM94.4727 7.35212C95.414 7.12393 96.3838 6.89575 97.3536 6.69609C98.0096 6.55348 98.6371 6.98132 98.7797 7.63735C98.9223 8.29337 98.4945 8.92088 97.8384 9.06349C96.8972 9.26315 95.9559 9.46281 95.0147 9.691C94.9576 9.74804 94.8721 9.74804 94.758 9.74804C94.216 9.74804 93.7026 9.37725 93.5885 8.80679C93.4459 8.15076 93.8452 7.49473 94.4727 7.35212ZM86.9142 9.46281C87.8554 9.17758 88.7967 8.89236 89.7379 8.63565C90.394 8.46451 91.05 8.83531 91.2211 9.46281C91.3923 10.1188 91.0215 10.7749 90.394 10.946C89.4812 11.2027 88.54 11.4879 87.6272 11.7732C87.5131 11.8017 87.3991 11.8302 87.285 11.8302C86.7716 11.8302 86.2867 11.4879 86.1155 10.9745C85.9159 10.347 86.2867 9.66247 86.9142 9.46281ZM79.4982 12.0299C80.4109 11.6876 81.3237 11.3453 82.2649 11.0031C82.8924 10.7749 83.577 11.1171 83.8052 11.7446C84.0334 12.3722 83.6911 13.0567 83.0636 13.2849C82.1508 13.5986 81.2666 13.9409 80.3539 14.2832C80.2398 14.3402 80.0972 14.3688 79.9546 14.3688C79.4697 14.3688 79.0133 14.0835 78.8137 13.5986C78.5855 12.9711 78.8707 12.2866 79.4982 12.0299ZM72.3104 15.0818C73.1946 14.6825 74.1074 14.2547 74.9916 13.8839C75.5906 13.6272 76.3322 13.8839 76.5889 14.5114C76.8456 15.1104 76.5889 15.8519 75.9614 16.1087C75.0772 16.4795 74.2215 16.8788 73.3373 17.2781C73.1661 17.3637 72.995 17.3922 72.8238 17.3922C72.3675 17.3922 71.9396 17.1355 71.7115 16.6791C71.4262 16.0801 71.6829 15.3385 72.3104 15.0818ZM65.3508 18.6187C66.2065 18.1623 67.0622 17.6774 67.9464 17.2496C68.5454 16.9358 69.2585 17.164 69.5722 17.763C69.886 18.362 69.6578 19.075 69.0588 19.3888C68.2031 19.8166 67.3474 20.273 66.5203 20.7294C66.3206 20.872 66.121 20.9005 65.9213 20.9005C65.4935 20.9005 65.0656 20.6723 64.866 20.273C64.5522 19.674 64.7519 18.9609 65.3508 18.6187ZM58.6194 22.6119C59.4466 22.0985 60.2738 21.5565 61.1009 21.0716C61.6714 20.7294 62.413 20.9005 62.7553 21.471C63.0975 22.0414 62.9264 22.783 62.3559 23.1253C61.5288 23.6102 60.7301 24.1236 59.903 24.637C59.7033 24.8081 59.4751 24.8652 59.2755 24.8652C58.8761 24.8652 58.4768 24.6655 58.2486 24.2947C57.8778 23.7243 58.049 22.9827 58.6194 22.6119ZM52.1733 27.09C52.9434 26.5195 53.7705 25.9205 54.5692 25.3786C55.1111 25.0078 55.8812 25.1219 56.252 25.6638C56.6228 26.2058 56.5087 26.9759 55.9668 27.3467C55.1967 27.8886 54.398 28.4591 53.6279 29.0295C53.3712 29.2007 53.143 29.2577 52.8863 29.2577C52.5155 29.2577 52.1447 29.0866 51.9165 28.7728C51.5172 28.2309 51.6313 27.4893 52.1733 27.09ZM46.0408 31.9389C46.7824 31.3114 47.5525 30.6839 48.2941 30.0564C48.8075 29.6285 49.5777 29.7141 50.0055 30.2275C50.4334 30.7409 50.3478 31.511 49.8344 31.9389C49.0928 32.5379 48.3512 33.1654 47.6096 33.7643C47.3529 33.9925 47.0676 34.0781 46.8109 34.0781C46.4687 34.0781 46.1264 33.9355 45.8982 33.6502C45.4704 33.1368 45.5274 32.3667 46.0408 31.9389ZM40.1936 37.2156C40.9067 36.5311 41.6198 35.8465 42.3328 35.1905C42.8177 34.7341 43.5879 34.7626 44.0442 35.2475C44.5006 35.7324 44.4721 36.5025 43.9872 36.9589C43.2741 37.6149 42.5896 38.271 41.905 38.927C41.6483 39.1837 41.3631 39.2978 41.0493 39.2978C40.7356 39.2978 40.4218 39.1837 40.1651 38.927C39.7087 38.4421 39.7087 37.672 40.1936 37.2156ZM34.7743 42.8346C35.4303 42.1216 36.1148 41.38 36.7709 40.6669C37.2272 40.182 37.9974 40.1535 38.4822 40.6098C38.9671 41.0662 38.9957 41.8363 38.5393 42.3212C37.8833 43.0058 37.2272 43.7188 36.5712 44.4319C36.3145 44.7457 35.9722 44.8598 35.6585 44.8598C35.3733 44.8598 35.088 44.7457 34.8598 44.546C34.375 44.0896 34.3179 43.3195 34.7743 42.8346ZM29.6972 48.8244C30.2962 48.0543 30.9237 47.2842 31.5512 46.5426C31.979 46.0292 32.7491 45.9436 33.2626 46.3715C33.776 46.7993 33.8615 47.5694 33.4337 48.0828C32.8347 48.8244 32.2072 49.566 31.6082 50.3362C31.3515 50.6499 31.0092 50.7925 30.6384 50.7925C30.3817 50.7925 30.0965 50.707 29.8968 50.5358C29.3834 50.108 29.2693 49.3664 29.6972 48.8244ZM25.0194 55.1851C25.5614 54.3864 26.1318 53.5592 26.7308 52.7891C27.1301 52.2472 27.8717 52.1331 28.4137 52.5324C28.9556 52.9317 29.0697 53.6733 28.6704 54.2153C28.0999 54.9854 27.558 55.784 27.016 56.5827C26.7879 56.8679 26.4171 57.0676 26.0177 57.0676C25.7896 57.0676 25.5328 57.0105 25.3332 56.8679C24.7912 56.4971 24.6486 55.727 25.0194 55.1851ZM20.798 61.7739C21.3115 60.9182 21.8249 60.091 22.3383 59.2638C22.6806 58.6934 23.4507 58.5222 24.0211 58.893C24.5916 59.2353 24.7627 60.0054 24.3919 60.5759C23.8785 61.3745 23.3651 62.2017 22.8802 63.0289C22.652 63.3997 22.2527 63.5993 21.8534 63.5993C21.6537 63.5993 21.4255 63.5423 21.2259 63.4282C20.6554 63.0859 20.4558 62.3443 20.798 61.7739ZM17.033 68.6479C17.4609 67.7637 17.9457 66.908 18.4021 66.0238C18.7159 65.4248 19.4575 65.2251 20.0564 65.5389C20.6554 65.8526 20.8551 66.5942 20.5413 67.1932C20.085 68.0489 19.6286 68.9046 19.2008 69.7603C18.9726 70.1881 18.5447 70.4163 18.1169 70.4163C17.9457 70.4163 17.7461 70.3878 17.5749 70.2737C16.976 69.9599 16.7478 69.2469 17.033 68.6479ZM13.6958 75.8071C14.0666 74.8944 14.466 73.9817 14.8938 73.0974C15.179 72.4985 15.8921 72.2132 16.4911 72.4985C17.0901 72.7837 17.3753 73.4968 17.0901 74.0958C16.6907 74.9514 16.2914 75.8642 15.9206 76.7484C15.7495 77.2048 15.2931 77.49 14.8367 77.49C14.6656 77.49 14.523 77.4615 14.3519 77.4044C13.7244 77.1477 13.4391 76.4346 13.6958 75.8071ZM10.9006 83.1375C11.2143 82.2248 11.5566 81.2835 11.8989 80.3708C12.1271 79.7433 12.8401 79.4295 13.4676 79.6577C14.0952 79.8859 14.4089 80.599 14.1807 81.2265C13.8384 82.1107 13.5247 83.0519 13.2109 83.9362C13.0113 84.421 12.5549 84.7348 12.0415 84.7348C11.8989 84.7348 11.7848 84.7063 11.6422 84.6778C11.0147 84.4496 10.6724 83.765 10.9006 83.1375ZM8.59023 90.6105C8.84693 89.6693 9.13216 88.728 9.38887 87.7868C9.58853 87.1592 10.2446 86.7885 10.9006 86.9881C11.5281 87.1878 11.8989 87.8438 11.6992 88.4998C11.414 89.4126 11.1573 90.3538 10.9006 91.2666C10.758 91.8085 10.2731 92.1508 9.75967 92.1508C9.64558 92.1508 9.56001 92.1508 9.44592 92.0937C8.78989 91.9226 8.41909 91.238 8.59023 90.6105ZM6.79329 98.2547C6.99295 97.2849 7.19261 96.3151 7.42079 95.3739C7.5634 94.7178 8.21943 94.3185 8.87546 94.4611C9.53148 94.6037 9.93081 95.2598 9.78819 95.9158C9.58853 96.857 9.36035 97.7983 9.18921 98.7396C9.0466 99.31 8.53318 99.7093 7.96272 99.7093C7.87716 99.7093 7.79159 99.7093 7.73454 99.6808C7.07851 99.5382 6.65067 98.9107 6.79329 98.2547ZM5.45271 105.984C5.5668 105.015 5.70941 104.045 5.88055 103.075C5.99464 102.419 6.59362 101.963 7.27817 102.077C7.9342 102.191 8.39057 102.79 8.27648 103.474C8.13386 104.416 7.99125 105.385 7.84863 106.327C7.82011 106.926 7.27817 107.353 6.67919 107.353C6.62215 107.353 6.5651 107.353 6.50806 107.353C5.85203 107.268 5.36714 106.669 5.45271 105.984ZM4.9393 110.862C4.99634 110.206 5.59532 109.692 6.25135 109.778C6.90738 109.835 7.42079 110.434 7.33522 111.09C7.24965 112.031 7.16408 113.001 7.10704 113.971C7.10704 114.598 6.5651 115.083 5.9376 115.083C5.90908 115.083 5.88055 115.083 5.85203 115.083C5.196 115.026 4.68259 114.456 4.71111 113.8C4.76816 112.83 4.85373 111.832 4.9393 110.862ZM4.48293 121.558C4.48293 120.617 4.48293 119.675 4.51145 118.706C4.53997 118.05 5.08191 117.508 5.73794 117.536C6.39396 117.565 6.9359 118.107 6.90738 118.763C6.87885 119.675 6.87885 120.617 6.87885 121.558V121.643C6.87885 122.299 6.33692 122.841 5.68089 122.841C5.02486 122.841 4.48293 122.299 4.48293 121.643V121.558V121.558ZM4.73963 129.459C4.68259 128.489 4.62554 127.491 4.5685 126.521C4.53997 125.865 5.05339 125.294 5.73794 125.266C6.42249 125.237 6.96442 125.751 6.99295 126.435C7.02147 127.405 7.07851 128.375 7.13556 129.316C7.19261 129.972 6.67919 130.571 5.99464 130.6C5.99464 130.6 5.96612 130.6 5.9376 130.6C5.31009 130.6 4.76816 130.115 4.73963 129.459ZM5.50975 137.274C5.36714 136.304 5.25305 135.334 5.16748 134.365C5.08191 133.709 5.5668 133.11 6.25135 133.024C6.90738 132.939 7.50636 133.423 7.59193 134.108C7.70602 135.049 7.82011 136.019 7.9342 136.96C8.01977 137.616 7.5634 138.244 6.90738 138.329C6.82181 138.329 6.76476 138.329 6.70772 138.329C6.10873 138.329 5.59532 137.873 5.50975 137.274ZM6.79329 145.004C6.59363 144.034 6.42249 143.064 6.25135 142.123C6.13726 141.467 6.5651 140.839 7.22113 140.725C7.87716 140.611 8.50466 141.039 8.61875 141.695C8.78989 142.636 8.96103 143.578 9.16069 144.519C9.3033 145.175 8.87546 145.802 8.21943 145.945C8.16239 145.974 8.07682 145.974 7.99125 145.974C7.42079 145.974 6.9359 145.574 6.79329 145.004ZM8.61875 152.648C8.36205 151.707 8.10534 150.737 7.87716 149.796C7.70602 149.14 8.10534 148.484 8.76137 148.341C9.41739 148.17 10.0734 148.569 10.216 149.225C10.4442 150.166 10.7009 151.079 10.9291 152.02C11.1002 152.676 10.7294 153.332 10.0734 153.504C10.0164 153.532 9.90228 153.532 9.78819 153.532C9.24626 153.532 8.76137 153.19 8.61875 152.648ZM12.0985 160.948C11.5851 160.948 11.1288 160.634 10.9576 160.121C10.6439 159.208 10.3301 158.267 10.0164 157.326C9.81671 156.698 10.159 156.014 10.815 155.814C11.4425 155.614 12.1271 155.957 12.3267 156.613C12.612 157.525 12.9257 158.438 13.2395 159.351C13.4676 159.978 13.1254 160.663 12.4979 160.891C12.3553 160.92 12.2412 160.948 12.0985 160.948ZM14.8938 168.164C14.4089 168.164 13.9811 167.879 13.7814 167.423C13.4106 166.539 13.0113 165.626 12.669 164.713C12.4123 164.086 12.7261 163.401 13.3536 163.144C13.9811 162.888 14.6656 163.201 14.9223 163.829C15.2646 164.713 15.6354 165.597 16.0062 166.481C16.2629 167.109 15.9777 167.822 15.3787 168.079C15.2075 168.136 15.0649 168.164 14.8938 168.164ZM18.7159 175.067C18.5447 175.152 18.3451 175.21 18.1739 175.21C17.7461 175.21 17.3182 174.953 17.0901 174.553C16.6622 173.698 16.2058 172.814 15.8065 171.929C15.5213 171.33 15.778 170.589 16.377 170.304C16.976 170.018 17.7176 170.275 18.0028 170.874C18.4021 171.73 18.83 172.614 19.2578 173.441C19.5716 174.04 19.3148 174.753 18.7159 175.067ZM22.4809 181.798C22.3098 181.941 22.1101 181.998 21.8819 181.998C21.4826 181.998 21.0547 181.798 20.8266 181.399C20.3417 180.572 19.8283 179.716 19.3719 178.86C19.0581 178.29 19.2578 177.548 19.8283 177.206C20.3987 176.892 21.1403 177.092 21.4826 177.662C21.939 178.49 22.4238 179.345 22.9087 180.144C23.251 180.714 23.0513 181.456 22.4809 181.798ZM26.7593 188.273C26.5597 188.444 26.303 188.501 26.0748 188.501C25.6755 188.501 25.3047 188.33 25.0765 187.988C24.5345 187.189 23.9641 186.362 23.4507 185.535C23.0799 184.964 23.251 184.223 23.7929 183.852C24.3634 183.481 25.105 183.652 25.4758 184.194C25.9892 184.993 26.5311 185.792 27.0731 186.59C27.4439 187.132 27.3013 187.902 26.7593 188.273ZM31.4086 194.491C31.2089 194.662 30.9522 194.748 30.667 194.748C30.2962 194.748 29.9539 194.577 29.7257 194.291C29.1267 193.521 28.5278 192.751 27.9288 191.952C27.5294 191.411 27.6435 190.669 28.157 190.27C28.6989 189.87 29.4405 189.984 29.8398 190.498C30.4103 191.268 31.0092 192.038 31.6082 192.78C32.0361 193.293 31.922 194.063 31.4086 194.491ZM36.5142 200.367C36.2575 200.566 35.9722 200.68 35.687 200.68C35.3447 200.68 35.031 200.538 34.8028 200.281C34.1468 199.568 33.4907 198.826 32.8632 198.085C32.4354 197.571 32.4924 196.801 32.9773 196.374C33.4907 195.946 34.2609 196.003 34.6887 196.488C35.3162 197.201 35.9437 197.942 36.5997 198.655C37.0561 199.14 36.9991 199.91 36.5142 200.367ZM41.9335 205.843C41.7053 206.128 41.3916 206.242 41.0778 206.242C40.7641 206.242 40.4789 206.128 40.2221 205.9C39.5091 205.216 38.8245 204.531 38.14 203.818C37.6836 203.333 37.6836 202.563 38.14 202.107C38.6249 201.65 39.395 201.65 39.8514 202.107C40.5074 202.791 41.2205 203.476 41.905 204.132C42.3899 204.588 42.3899 205.358 41.9335 205.843ZM47.7807 211.034C47.524 211.32 47.1817 211.462 46.8395 211.462C46.5542 211.462 46.2975 211.377 46.0693 211.177C45.3278 210.549 44.5862 209.893 43.8446 209.237C43.3311 208.781 43.3026 208.039 43.759 207.526C44.2154 207.013 44.957 206.984 45.4704 207.44C46.1834 208.068 46.925 208.724 47.6381 209.323C48.1515 209.751 48.2086 210.521 47.7807 211.034ZM53.9702 215.798C53.6564 216.111 53.3142 216.283 52.9434 216.283C52.6867 216.283 52.43 216.197 52.2303 216.054C51.4317 215.484 50.6615 214.885 49.8914 214.286C49.3495 213.887 49.2639 213.116 49.6918 212.575C50.0911 212.033 50.8612 211.947 51.4031 212.375C52.1733 212.974 52.9434 213.544 53.7135 214.115C54.2554 214.514 54.3695 215.284 53.9702 215.798ZM60.3878 220.133C60.1311 220.475 59.7318 220.675 59.3325 220.675C59.1043 220.675 58.8761 220.618 58.6765 220.475C57.8493 219.962 57.0221 219.392 56.2235 218.85C55.6816 218.479 55.5104 217.709 55.9098 217.167C56.2806 216.625 57.0507 216.454 57.5926 216.853C58.3912 217.395 59.1899 217.908 60.0171 218.45C60.5875 218.821 60.7586 219.563 60.3878 220.133ZM67.0907 224.041C66.8626 224.412 66.4347 224.64 66.0069 224.64C65.8072 224.64 65.6075 224.583 65.4364 224.497C64.5807 224.041 63.725 223.527 62.8693 223.042C62.2989 222.7 62.0992 221.959 62.4415 221.388C62.7838 220.818 63.5254 220.618 64.0958 220.96C64.923 221.445 65.7787 221.93 66.6059 222.386C67.2048 222.7 67.4045 223.442 67.0907 224.041ZM74.0789 227.463C73.8507 227.891 73.4228 228.177 72.9665 228.177C72.7953 228.177 72.6242 228.148 72.4531 228.062C71.5688 227.663 70.6846 227.207 69.8004 226.779C69.2014 226.494 68.9447 225.752 69.2585 225.153C69.5437 224.554 70.2853 224.297 70.8843 224.611C71.74 225.039 72.6242 225.467 73.4799 225.866C74.0789 226.151 74.3641 226.865 74.0789 227.463ZM81.2381 230.458C81.067 230.915 80.6106 231.2 80.1257 231.2C79.9831 231.2 79.8405 231.171 79.6979 231.114C78.7851 230.772 77.8724 230.401 76.9597 230.031C76.3322 229.774 76.0469 229.061 76.3036 228.462C76.5604 227.834 77.2734 227.549 77.8724 227.806C78.7566 228.177 79.6693 228.547 80.5536 228.89C81.1811 229.118 81.4948 229.831 81.2381 230.458ZM88.597 232.854C88.4829 233.425 87.998 233.739 87.4846 233.739C87.3705 233.739 87.2564 233.71 87.1138 233.681C86.1726 233.396 85.2313 233.083 84.2901 232.769C83.6626 232.569 83.3203 231.856 83.5199 231.229C83.7481 230.601 84.4327 230.259 85.0602 230.458C85.9729 230.772 86.8856 231.057 87.7984 231.343C88.4259 231.542 88.7967 232.227 88.597 232.854ZM96.1556 234.879C96.013 235.421 95.5281 235.792 94.9576 235.792C94.8721 235.792 94.758 235.792 94.6724 235.764C93.7311 235.535 92.7614 235.307 91.8201 235.051C91.1641 234.879 90.7933 234.223 90.9644 233.567C91.1356 232.911 91.7916 232.541 92.4476 232.712C93.3604 232.968 94.3016 233.197 95.2429 233.425C95.8989 233.567 96.2982 234.223 96.1556 234.879ZM103.771 236.306C103.657 236.905 103.144 237.332 102.573 237.332C102.516 237.332 102.431 237.332 102.374 237.304C101.404 237.133 100.434 236.962 99.4928 236.79C98.8367 236.676 98.4089 236.02 98.523 235.364C98.6371 234.708 99.2931 234.28 99.9491 234.395C100.89 234.566 101.86 234.737 102.773 234.908C103.429 235.022 103.885 235.65 103.771 236.306ZM110.274 238.359C110.246 238.359 110.189 238.359 110.16 238.359C109.191 238.274 108.192 238.16 107.251 238.045C106.595 237.96 106.11 237.361 106.196 236.705C106.281 236.049 106.88 235.564 107.536 235.65C108.477 235.764 109.447 235.878 110.389 235.963C111.045 236.02 111.529 236.619 111.472 237.275C111.415 237.874 110.873 238.359 110.274 238.359ZM118.004 238.844C117.006 238.816 116.008 238.759 115.038 238.702C114.382 238.673 113.868 238.103 113.897 237.418C113.925 236.762 114.496 236.249 115.18 236.277C116.122 236.334 117.091 236.363 118.061 236.42C118.717 236.448 119.259 236.99 119.231 237.675C119.202 238.331 118.66 238.844 118.004 238.844ZM125.819 238.844C124.821 238.873 123.851 238.901 122.853 238.901C122.197 238.901 121.655 238.359 121.655 237.703C121.655 237.047 122.197 236.477 122.853 236.477C123.794 236.477 124.764 236.448 125.734 236.42C126.418 236.391 126.96 236.933 126.989 237.589C127.017 238.245 126.475 238.816 125.819 238.844ZM133.635 238.302C132.665 238.388 131.667 238.473 130.697 238.559C130.668 238.587 130.64 238.587 130.611 238.587C129.984 238.587 129.442 238.103 129.413 237.475C129.356 236.819 129.87 236.22 130.526 236.163C131.467 236.106 132.437 236.02 133.407 235.906C134.063 235.849 134.662 236.334 134.719 236.99C134.776 237.646 134.291 238.245 133.635 238.302ZM141.421 237.304C140.452 237.475 139.482 237.618 138.512 237.76C138.455 237.76 138.398 237.76 138.341 237.76C137.742 237.76 137.229 237.332 137.143 236.705C137.057 236.049 137.514 235.421 138.17 235.336C139.111 235.193 140.081 235.051 141.022 234.908C141.678 234.794 142.306 235.25 142.42 235.906C142.534 236.562 142.078 237.19 141.421 237.304ZM149.123 235.735C148.181 235.963 147.212 236.192 146.242 236.391C146.156 236.391 146.071 236.42 145.985 236.42C145.415 236.42 144.93 236.02 144.787 235.45C144.645 234.794 145.072 234.166 145.728 234.024C146.67 233.824 147.611 233.624 148.552 233.396C149.208 233.254 149.864 233.653 150.007 234.28C150.149 234.937 149.75 235.593 149.123 235.735ZM156.653 233.653C155.711 233.938 154.77 234.223 153.829 234.48C153.743 234.537 153.629 234.537 153.515 234.537C152.973 234.537 152.488 234.195 152.346 233.653C152.175 232.997 152.545 232.341 153.173 232.17C154.086 231.913 155.027 231.628 155.94 231.343C156.567 231.143 157.252 231.514 157.451 232.141C157.651 232.769 157.28 233.453 156.653 233.653ZM164.097 231.114C163.184 231.457 162.272 231.799 161.33 232.141C161.188 232.17 161.045 232.198 160.903 232.198C160.418 232.198 159.933 231.885 159.762 231.4C159.534 230.772 159.876 230.088 160.503 229.859C161.416 229.546 162.3 229.203 163.213 228.861C163.84 228.633 164.525 228.918 164.782 229.546C165.01 230.173 164.725 230.858 164.097 231.114ZM171.256 228.034C170.372 228.433 169.459 228.861 168.575 229.232C168.433 229.317 168.262 229.346 168.119 229.346C167.663 229.346 167.206 229.061 167.007 228.604C166.75 227.977 167.035 227.264 167.634 227.007C168.518 226.636 169.374 226.237 170.258 225.838C170.857 225.552 171.599 225.809 171.855 226.437C172.141 227.036 171.884 227.777 171.256 228.034ZM178.245 224.526C177.389 224.982 176.533 225.467 175.649 225.895C175.478 225.98 175.307 226.009 175.107 226.009C174.679 226.009 174.251 225.781 174.023 225.353C173.709 224.754 173.938 224.041 174.537 223.727C175.392 223.299 176.248 222.843 177.075 222.386C177.674 222.073 178.387 222.272 178.729 222.871C179.043 223.47 178.844 224.183 178.245 224.526ZM185.004 220.561C184.177 221.074 183.35 221.616 182.523 222.101C182.295 222.187 182.067 222.244 181.867 222.244C181.468 222.244 181.068 222.044 180.84 221.673C180.498 221.103 180.669 220.361 181.239 220.019C182.067 219.534 182.865 219.021 183.692 218.507C184.263 218.136 185.004 218.308 185.375 218.878C185.746 219.449 185.575 220.19 185.004 220.561ZM191.422 216.054C190.652 216.625 189.825 217.195 189.026 217.766C188.855 217.937 188.598 217.994 188.37 217.994C187.999 217.994 187.6 217.823 187.372 217.48C187.001 216.939 187.115 216.168 187.657 215.798C188.427 215.256 189.226 214.685 189.996 214.115C190.538 213.715 191.28 213.83 191.679 214.371C192.078 214.913 191.964 215.655 191.422 216.054ZM197.583 211.205C196.842 211.833 196.071 212.46 195.301 213.088C195.102 213.259 194.845 213.345 194.56 213.345C194.217 213.345 193.847 213.202 193.618 212.888C193.191 212.375 193.276 211.605 193.79 211.177C194.531 210.578 195.273 209.95 196.014 209.351C196.528 208.924 197.298 208.981 197.726 209.494C198.154 210.007 198.097 210.778 197.583 211.205ZM203.402 205.957C202.689 206.642 201.976 207.326 201.263 207.982C201.034 208.182 200.749 208.296 200.435 208.296C200.122 208.296 199.779 208.153 199.551 207.897C199.095 207.412 199.123 206.642 199.637 206.185C200.35 205.529 201.034 204.873 201.719 204.217C202.204 203.761 202.974 203.761 203.43 204.246C203.887 204.731 203.887 205.501 203.402 205.957ZM188.228 204.731C181.239 204.103 174.765 208.41 172.597 215.085C169.745 223.955 159.591 228.091 151.319 223.784C145.101 220.532 137.457 222.016 132.922 227.378C126.875 234.48 115.922 234.423 109.932 227.292C105.426 221.93 97.8099 220.361 91.5634 223.556C83.2632 227.806 73.1661 223.556 70.3709 214.685C68.2602 207.982 61.814 203.647 54.8259 204.217C45.5559 204.959 37.8262 197.172 38.6534 187.902C39.2809 180.914 34.9739 174.439 28.2996 172.272C19.4289 169.419 15.2931 159.265 19.6001 150.994C22.8517 144.776 21.3685 137.131 16.0062 132.596C8.90398 126.549 8.96103 115.597 16.0918 109.607C21.4541 105.1 23.0228 97.4845 19.8283 91.238C15.5783 82.9379 19.8283 72.8407 28.6989 70.0455C35.4018 67.9348 39.7373 61.4886 39.1668 54.5005C38.4252 45.2306 46.212 37.5008 55.4819 38.328C62.47 38.9555 68.9447 34.6486 71.1125 27.9742C73.9648 19.1036 84.1189 14.9677 92.3906 19.2747C98.6086 22.5263 106.253 21.0431 110.788 15.6808C116.835 8.5786 127.788 8.63565 133.777 15.7664C138.284 21.1287 145.9 22.6975 152.146 19.5029C160.446 15.253 170.543 19.5029 173.339 28.3735C175.449 35.0764 181.895 39.4119 188.884 38.8414C198.154 38.0998 205.883 45.8866 205.056 55.1565C204.429 62.1446 208.736 68.6194 215.41 70.7871C224.281 73.6394 228.416 83.7935 224.109 92.0652C220.858 98.2832 222.341 105.927 227.703 110.462C234.806 116.509 234.748 127.462 227.618 133.452C222.255 137.959 220.687 145.574 223.881 151.821C228.131 160.121 223.881 170.218 215.011 173.013C208.308 175.124 203.972 181.57 204.543 188.558C205.284 197.828 197.498 205.558 188.228 204.731ZM208.878 200.31C208.222 201.023 207.538 201.764 206.882 202.477C206.625 202.734 206.311 202.848 205.969 202.848C205.655 202.848 205.37 202.734 205.142 202.506C204.657 202.05 204.628 201.279 205.113 200.795C205.769 200.11 206.425 199.397 207.081 198.684C207.538 198.199 208.308 198.142 208.793 198.598C209.277 199.055 209.335 199.825 208.878 200.31ZM213.984 194.348C213.385 195.119 212.757 195.889 212.13 196.63C211.845 196.915 211.502 197.058 211.16 197.058C210.875 197.058 210.618 196.973 210.39 196.773C209.876 196.345 209.819 195.575 210.247 195.061C210.875 194.32 211.474 193.578 212.073 192.837C212.501 192.323 213.242 192.238 213.784 192.637C214.298 193.065 214.383 193.806 213.984 194.348ZM218.604 188.016C218.063 188.815 217.492 189.614 216.893 190.412C216.665 190.754 216.294 190.926 215.923 190.926C215.667 190.926 215.438 190.84 215.21 190.697C214.668 190.298 214.554 189.557 214.954 189.015C215.524 188.244 216.066 187.446 216.608 186.647C216.979 186.105 217.749 185.963 218.291 186.333C218.833 186.704 218.975 187.474 218.604 188.016ZM222.826 181.37C222.312 182.198 221.799 183.053 221.286 183.88C221.057 184.28 220.658 184.479 220.259 184.479C220.031 184.479 219.802 184.422 219.603 184.28C219.032 183.938 218.861 183.167 219.232 182.597C219.745 181.798 220.259 180.971 220.744 180.144C221.086 179.574 221.828 179.374 222.398 179.716C222.968 180.058 223.168 180.8 222.826 181.37ZM226.648 174.496C226.22 175.352 225.735 176.236 225.279 177.121C225.022 177.548 224.623 177.777 224.195 177.777C223.995 177.777 223.796 177.72 223.625 177.634C223.026 177.32 222.826 176.579 223.14 175.98C223.596 175.124 224.052 174.268 224.48 173.413C224.794 172.814 225.507 172.585 226.106 172.871C226.705 173.184 226.933 173.897 226.648 174.496ZM229.928 167.423C229.557 168.307 229.158 169.22 228.73 170.132C228.53 170.532 228.103 170.817 227.646 170.817C227.475 170.817 227.304 170.788 227.133 170.703C226.534 170.418 226.249 169.705 226.534 169.106C226.933 168.221 227.333 167.337 227.703 166.453C227.96 165.825 228.673 165.54 229.301 165.825C229.928 166.082 230.213 166.795 229.928 167.423ZM232.723 160.064C232.41 161.005 232.067 161.918 231.725 162.831C231.582 163.315 231.098 163.629 230.613 163.629C230.47 163.629 230.327 163.601 230.185 163.544C229.557 163.315 229.244 162.602 229.472 161.975C229.814 161.091 230.128 160.178 230.442 159.265C230.67 158.638 231.354 158.295 231.982 158.524C232.609 158.752 232.952 159.436 232.723 160.064ZM235.119 152.534C234.863 153.475 234.577 154.416 234.321 155.358C234.121 155.899 233.636 156.242 233.123 156.242C233.009 156.242 232.894 156.213 232.78 156.185C232.153 155.985 231.782 155.329 231.982 154.673C232.267 153.76 232.524 152.819 232.78 151.906C232.952 151.25 233.636 150.879 234.264 151.051C234.92 151.222 235.29 151.906 235.119 152.534ZM236.859 144.918C236.66 145.888 236.46 146.858 236.232 147.799C236.146 148.369 235.661 148.74 235.091 148.74C235.005 148.74 234.92 148.74 234.806 148.712C234.149 148.569 233.75 147.913 233.893 147.257C234.092 146.316 234.321 145.375 234.492 144.433C234.634 143.777 235.262 143.349 235.918 143.492C236.574 143.635 237.002 144.262 236.859 144.918ZM238.2 137.188C238.057 138.158 237.915 139.128 237.772 140.098C237.658 140.697 237.144 141.125 236.574 141.125C236.517 141.125 236.46 141.125 236.374 141.096C235.718 140.982 235.262 140.383 235.376 139.698C235.519 138.757 235.661 137.787 235.804 136.846C235.889 136.19 236.517 135.705 237.173 135.819C237.829 135.905 238.314 136.504 238.2 137.188ZM238.742 132.311C238.685 132.939 238.143 133.423 237.515 133.423C237.487 133.423 237.43 133.423 237.401 133.423C236.745 133.366 236.232 132.767 236.317 132.111C236.403 131.17 236.488 130.2 236.545 129.231C236.602 128.575 237.173 128.061 237.829 128.09C238.485 128.147 238.998 128.717 238.97 129.373C238.913 130.343 238.827 131.341 238.742 132.311ZM239.17 124.496C239.17 125.152 238.628 125.665 237.972 125.665C237.287 125.637 236.745 125.095 236.774 124.439C236.802 123.469 236.802 122.499 236.802 121.558V121.358C236.802 120.702 237.344 120.16 238 120.16C238.656 120.16 239.198 120.702 239.198 121.358V121.558C239.198 122.528 239.198 123.526 239.17 124.496Z" fill="#F4EFEA"/>
<path d="M50.5472 189.927C50.1479 190.213 50.262 190.355 49.7771 190.27C49.4919 190.355 49.0925 190.213 48.8644 189.984C48.5791 189.728 48.3795 189.243 48.4365 188.872C48.4936 188.416 48.6362 188.073 49.0355 187.874C49.663 187.588 50.2049 187.588 50.7754 188.016C51.4029 188.444 51.1177 189.5 50.5472 189.927Z" fill="#F4EFEA"/>
<path d="M62.1862 188.073C62.1862 188.615 62.3288 189.385 62.0436 189.87C61.9295 190.07 61.6157 190.241 61.359 190.241C60.5889 190.212 59.7332 190.213 58.9631 190.213C57.9363 190.184 57.3088 190.526 57.2517 189.585C57.2232 189.214 57.2232 188.9 57.2232 188.53C57.2232 187.474 57.2802 186.276 57.2802 185.221C57.2517 183.852 57.2232 182.483 57.1947 181.085C57.1661 180.058 57.3373 178.946 57.7936 178.119C57.6225 178.119 57.3373 178.147 57.1947 178.147C56.5957 178.176 56.396 177.548 56.5101 177.12C56.5957 176.835 56.8239 176.75 57.2232 176.75C58.3641 176.721 59.5335 176.892 60.5889 176.75C61.1308 176.664 62.0721 176.664 62.2432 177.406C62.3858 178.147 62.1862 178.974 62.1862 179.745C62.1862 180.287 62.1862 180.828 62.1862 181.37C62.1862 182.74 62.1862 184.109 62.1862 185.478C62.1862 186.333 62.1862 187.189 62.1862 188.073ZM60.6745 188.872C60.6745 188.843 60.6459 188.729 60.6459 188.672C60.6459 188.359 60.6174 187.902 60.6174 187.588C60.5889 186.847 60.6459 186.248 60.6459 185.506C60.6174 184.337 60.5604 183.11 60.6459 181.941C60.703 180.857 60.6174 179.745 60.703 178.661C60.703 178.49 60.7315 178.318 60.7315 178.147C60.4463 178.176 60.1325 178.176 59.8188 178.176H59.7903C59.7617 178.176 59.7617 178.176 59.7617 178.204C58.2785 178.604 58.7349 180.914 58.7349 182.055C58.7634 183.167 58.849 184.023 58.8205 185.421C58.8205 185.963 58.7919 186.562 58.7919 187.103C58.7634 187.702 58.7634 188.273 58.7634 188.843C58.9916 188.815 59.2198 188.815 59.448 188.815C59.8473 188.843 60.2751 188.872 60.6745 188.872Z" fill="#F4EFEA"/>
<path d="M68.5454 182.454C68.5454 183.253 67.2333 183.795 67.1192 182.939C67.0051 182.283 67.2048 182.825 67.1477 180.572C67.0907 178.917 67.1192 179.602 67.0907 177.948C67.2903 177.976 66.4917 177.919 66.235 177.919C65.4364 177.919 65.579 176.75 66.4917 176.693C67.0907 176.664 67.6326 176.579 68.2316 176.807C68.4598 176.864 68.688 177.32 68.688 177.548C68.7165 179.431 68.6595 178.803 68.7165 180.686L68.5454 182.454Z" fill="#F4EFEA"/>
<path d="M79.8116 187.76C79.6404 188.359 79.4122 188.929 78.9273 189.357C78.3284 189.927 77.5012 190.213 76.674 190.213C75.6187 190.241 74.1925 190.327 73.4795 190.184C73.1087 190.127 72.7379 189.956 72.7379 189.499C72.7379 189.015 72.7093 188.53 72.7379 188.045C72.7949 187.018 72.7379 185.906 72.7379 184.85C72.7664 182.939 72.6238 181 72.7093 179.089C72.7379 178.547 72.7949 178.005 72.852 177.463C72.8805 177.063 73.0801 176.864 73.4224 176.835C73.8503 176.778 74.4207 176.921 74.3637 177.434C74.2211 178.689 74.2781 179.944 74.2211 181.199C74.1925 182.169 74.2781 183.766 74.2781 184.993C74.2781 185.763 74.3066 186.59 74.2781 187.389C74.2211 188.13 74.2496 188.587 74.3637 188.9C74.9627 188.929 75.4761 188.9 76.075 188.9C76.7596 188.872 77.7009 188.872 78.0717 188.13C78.3569 187.588 78.4425 187.218 78.4425 186.619C78.4425 185.478 78.471 184.308 78.471 183.167C78.4995 182.112 78.3854 181.057 78.3854 179.973C78.3854 179.146 78.3854 178.261 78.3854 177.434C78.3854 176.978 78.6706 176.949 79.2411 176.835C79.6119 176.75 79.8971 176.949 79.8971 177.377C79.8971 179.203 80.0683 181.085 79.9256 182.911C79.8686 184.251 80.2109 186.219 79.8116 187.76ZM75.5046 182.54C75.5046 182.226 75.5046 181.912 75.5046 181.599C75.5046 180.8 75.4761 180.001 75.5902 179.174C75.6757 178.604 75.6187 178.005 75.6187 177.434C75.5902 176.978 75.9895 176.864 76.3603 176.807C76.7311 176.721 77.1589 176.949 77.1589 177.406C77.1589 178.033 77.1874 178.661 77.0733 179.26C76.9593 180.115 76.9878 180.943 76.9878 181.77C76.9593 183.595 77.1019 185.307 77.0163 187.104C76.9878 187.503 76.5314 187.788 76.1606 187.845C75.7613 187.874 75.4475 187.731 75.4761 187.246C75.5902 185.677 75.5046 184.109 75.5046 182.54Z" fill="#F4EFEA"/>
<path d="M86.8289 188.9C86.7149 189.271 86.4582 189.756 86.1444 190.013C85.3458 190.64 84.8038 190.384 83.8626 190.384C83.2065 190.384 83.0924 189.699 83.2921 189.328C83.4062 189.129 83.6059 189.072 83.9481 189.072C84.5471 189.1 85.2031 189.442 85.4028 188.672C85.5169 188.159 85.4028 187.503 85.4028 186.989C85.4313 186.39 85.4313 185.82 85.4313 185.221C85.4599 183.995 85.4598 182.768 85.4028 181.513C85.4028 180.857 85.4313 180.172 85.3743 179.516C85.3458 179.06 85.4598 178.575 85.4028 178.09C85.1461 178.09 84.8038 178.119 84.5471 178.119C83.9481 178.147 83.7485 177.463 83.9196 177.092C84.0337 176.864 84.2904 176.835 84.6327 176.835C85.1746 176.807 85.7166 176.75 86.287 176.835C86.4867 176.864 86.7719 177.035 86.8289 177.292C86.943 177.976 86.886 178.746 86.943 179.459C86.9716 180.315 86.9145 181.199 86.9716 182.055C87.0857 183.481 86.9716 184.936 86.943 186.419C86.943 187.132 87.0571 188.073 86.8289 188.9Z" fill="#F4EFEA"/>
<path d="M96.327 190.156C95.9277 190.184 95.4999 190.156 95.4143 189.756C95.3287 189.385 95.2146 189.072 95.1291 188.672C94.8153 187.588 94.4445 186.533 94.0452 185.478C93.9596 185.278 93.874 185.107 93.817 184.879C93.6173 184.422 93.4462 183.795 93.2465 183.31C93.1324 184.194 93.1039 185.307 92.9043 186.105C92.7046 186.961 92.562 187.874 92.5335 188.758C92.7331 188.758 92.9328 188.786 93.1324 188.786C93.7029 188.815 93.9596 188.986 93.874 189.728C93.8455 190.041 93.5032 190.241 93.1039 190.213C92.6476 190.184 92.3053 190.07 91.7348 190.127C91.3355 190.184 90.9932 189.87 90.9932 189.442C90.9647 188.872 90.9932 188.302 91.0788 187.703C91.1358 187.104 91.2214 186.448 91.3925 185.906C91.7919 184.394 91.6778 182.911 92.1056 181.656C92.1627 181.513 92.2482 181.342 92.3909 181.285C92.2768 180.971 92.1627 180.857 92.0486 180.572C91.906 180.201 91.7348 179.631 91.5922 179.26C91.3926 178.689 91.1644 178.09 90.9362 177.52C90.7936 177.149 91.1358 176.607 91.5637 176.607C91.963 176.607 92.2768 176.721 92.4194 177.121C92.562 177.52 92.6761 177.919 92.8757 178.29C93.161 178.889 93.4177 179.631 93.6744 180.372C94.0167 181.313 94.3019 182.369 94.6727 183.224C94.9009 182.511 95.072 181.798 95.1576 181.028C95.2146 180.173 95.4428 179.032 95.4713 178.233C95.3002 178.233 94.9864 178.262 94.7868 178.262C94.2448 178.29 94.0167 177.805 94.0737 177.434C94.1307 176.892 94.3589 176.75 94.8438 176.75C95.2717 176.75 95.6995 176.75 96.1274 176.75C96.5552 176.778 96.8689 177.064 96.8975 177.52C96.9545 178.746 96.7834 180.001 96.6122 181.199C96.4411 182.511 96.2129 183.823 95.5284 184.964C95.8706 185.792 96.1559 186.619 96.4411 187.474C96.6693 188.187 96.8119 188.701 96.983 189.328C97.0401 189.756 96.9545 190.07 96.327 190.156Z" fill="#F4EFEA"/>
<path d="M107.935 189.927C107.536 190.213 107.65 190.355 107.165 190.27C106.88 190.355 106.48 190.213 106.252 189.984C105.967 189.728 105.767 189.243 105.824 188.872C105.881 188.416 106.024 188.073 106.423 187.874C107.051 187.588 107.593 187.588 108.163 188.016C108.791 188.444 108.505 189.5 107.935 189.927Z" fill="#F4EFEA"/>
<path d="M117.577 181.57C117.577 183.025 117.491 184.479 117.462 185.934C117.405 187.189 117.405 188.273 117.462 189.5C117.52 190.441 116.036 190.64 115.951 189.671C115.837 188.587 115.922 187.446 115.979 186.305C116.008 184.879 115.979 183.51 116.008 182.112C116.036 181.256 116.036 180.372 116.036 179.545C116.036 179.26 116.065 178.29 115.751 178.204C115.323 178.09 114.696 178.09 114.268 178.09C114.239 179.003 114.268 179.916 114.239 180.8C114.211 182.454 114.239 184.137 114.239 185.792C114.239 186.875 114.353 188.273 114.211 189.385C114.154 189.899 113.954 190.213 113.355 190.184C112.756 190.156 112.414 190.213 111.815 190.156C110.788 190.041 111.359 188.644 112.1 188.901C112.328 188.986 112.528 188.872 112.785 188.872C112.87 188.615 112.813 188.416 112.813 188.216C112.785 187.76 112.728 187.332 112.699 186.875C112.642 185.734 112.671 184.594 112.671 183.453C112.671 183.139 112.671 182.854 112.699 182.511C112.728 181.057 112.956 179.602 112.984 178.147C112.927 178.147 112.813 178.119 112.756 178.119C112.3 178.09 112.072 178.062 112.015 177.748C111.958 177.32 112.186 176.636 112.728 176.664C113.27 176.693 113.869 176.636 114.468 176.607C115.181 176.579 116.036 176.636 116.607 177.035C117.776 177.748 117.548 179.431 117.605 180.657C117.577 180.943 117.577 181.256 117.577 181.57Z" fill="#F4EFEA"/>
<path d="M124.02 188.33C124.049 188.786 124.049 189.186 124.049 189.642C124.049 189.927 123.678 190.127 123.478 190.241C123.022 190.441 122.537 190.27 122.537 189.699C122.509 188.558 122.309 187.332 122.366 186.162C122.423 185.021 122.566 183.938 122.537 182.797C122.509 181.142 122.566 179.516 122.509 177.891C122.309 177.919 121.938 178.005 121.796 178.005C121.197 178.033 121.083 177.434 121.225 177.063C121.339 176.807 121.51 176.693 121.881 176.693C122.48 176.664 123.051 176.55 123.621 176.75C123.849 176.807 123.992 177.035 123.992 177.263C124.02 179.174 124.02 181.028 124.077 182.911C124.106 184.08 124.02 185.278 123.963 186.476C123.963 187.104 123.992 187.731 124.02 188.33Z" fill="#F4EFEA"/>
<path d="M132.721 190.27C132.036 190.441 131.295 190.241 130.61 190.241C130.154 190.213 129.669 190.213 129.213 190.213C129.041 190.213 128.842 190.213 128.699 190.213C128.699 190.213 128.357 190.241 128.557 190.213C128.1 190.298 127.758 190.013 127.644 189.699C127.53 189.328 127.615 189.015 128.1 188.929C128.471 188.901 128.956 188.786 129.355 188.786C129.812 188.758 130.239 188.786 130.696 188.815C130.667 188.701 130.61 188.444 130.61 188.33C130.582 186.932 130.724 185.649 130.667 184.251C130.639 183.281 130.696 182.34 130.696 181.37C130.667 180.686 130.582 180.001 130.525 179.317C130.496 178.775 130.525 178.376 129.926 178.319C129.698 178.29 129.441 178.261 129.184 178.233C128.899 178.204 128.528 178.147 128.243 178.147C127.758 178.147 127.701 177.862 127.615 177.52C127.501 177.092 127.901 176.778 128.385 176.778C128.87 176.778 129.555 176.721 130.211 176.807C130.895 176.921 131.494 177.149 131.78 177.691C132.35 178.803 132.293 180.372 132.322 181.57C132.35 182.54 132.293 183.51 132.322 184.479C132.35 185.25 132.35 186.02 132.293 186.761C132.265 187.303 132.208 187.845 132.236 188.416C132.236 188.473 132.236 188.53 132.265 188.615H132.293C132.521 188.701 132.721 188.929 132.978 188.986C133.548 189.043 133.291 190.127 132.721 190.27Z" fill="#F4EFEA"/>
<path d="M135.83 177.748C135.83 177.149 136.001 176.693 136.6 176.693C137.285 176.664 137.998 176.55 138.597 176.75C139.025 176.864 139.367 176.921 139.681 177.349C140.508 178.376 140.28 180.315 140.28 181.542C140.251 182.882 140.08 184.365 140.023 185.734C139.937 187.018 140.08 188.216 140.051 189.499C140.051 189.899 139.852 190.127 139.538 190.184C138.996 190.184 138.511 190.07 138.511 189.499C138.54 189.243 138.54 188.958 138.511 188.701C138.483 187.845 138.397 187.018 138.454 186.105C138.511 185.078 138.654 183.995 138.682 182.939C138.711 181.713 138.796 180.258 138.796 179.032C138.796 177.748 137.541 178.09 136.543 178.09C136.144 178.119 135.83 178.033 135.83 177.748Z" fill="#F4EFEA"/>
<path d="M149.693 181.57C149.693 183.025 149.607 184.479 149.579 185.934C149.522 187.189 149.522 188.273 149.579 189.5C149.636 190.441 148.153 190.64 148.067 189.671C147.953 188.587 148.038 187.446 148.096 186.305C148.124 184.879 148.096 183.51 148.124 182.112C148.153 181.256 148.153 180.372 148.153 179.545C148.153 179.26 148.181 178.29 147.867 178.204C147.439 178.09 146.812 178.09 146.384 178.09C146.356 179.003 146.384 179.916 146.356 180.8C146.327 182.454 146.356 184.137 146.356 185.792C146.356 186.875 146.47 188.273 146.327 189.385C146.27 189.899 146.07 190.213 145.471 190.184C144.872 190.156 144.53 190.213 143.931 190.156C142.904 190.041 143.475 188.644 144.216 188.901C144.445 188.986 144.644 188.872 144.901 188.872C144.987 188.615 144.929 188.416 144.929 188.216C144.901 187.76 144.844 187.332 144.815 186.875C144.758 185.734 144.787 184.594 144.787 183.453C144.787 183.139 144.787 182.854 144.815 182.511C144.844 181.057 145.072 179.602 145.101 178.147C145.044 178.147 144.929 178.119 144.872 178.119C144.416 178.09 144.188 178.062 144.131 177.748C144.074 177.32 144.302 176.636 144.844 176.664C145.357 176.693 145.985 176.636 146.584 176.607C147.297 176.579 148.153 176.636 148.723 177.035C149.892 177.748 149.664 179.431 149.721 180.657C149.693 180.943 149.693 181.256 149.693 181.57Z" fill="#F4EFEA"/>
<path d="M160.988 189.927C160.588 190.213 160.702 190.355 160.218 190.27C159.932 190.355 159.533 190.213 159.305 189.984C159.02 189.728 158.82 189.243 158.877 188.872C158.934 188.416 159.077 188.073 159.476 187.874C160.103 187.588 160.645 187.588 161.216 188.016C161.815 188.444 161.558 189.5 160.988 189.927Z" fill="#F4EFEA"/>
<path d="M170.686 183.823C170.657 185.421 170.486 186.875 170.429 188.473C170.429 188.786 170.429 189.129 170.429 189.442C170.429 189.899 170.144 190.156 169.773 190.156C169.402 190.156 168.889 189.927 168.889 189.471C168.889 188.929 168.86 188.444 168.917 187.931C169.031 186.362 169.031 184.964 169.089 183.481C169.089 183.025 169.089 182.568 169.089 182.141C169.089 181.485 169.089 180.714 169.06 180.058C169.031 179.574 169.089 179.003 168.917 178.547C168.746 178.147 168.147 178.147 167.463 178.09C166.778 178.062 166.094 178.147 165.751 178.147C165.209 178.147 164.953 177.805 165.01 177.463C165.01 177.349 165.124 177.035 165.238 176.921C165.381 176.778 165.523 176.807 165.78 176.721C166.407 176.579 167.12 176.693 167.776 176.721C168.461 176.778 169.146 176.807 169.688 177.178C170.771 177.862 170.543 179.288 170.6 180.429C170.657 181.513 170.714 182.797 170.686 183.823ZM166.322 181.513C166.636 181.542 166.864 181.713 166.835 182.084C166.75 182.654 166.721 183.253 166.778 183.823C166.807 184.451 166.921 185.107 166.835 185.706C166.75 186.162 166.835 186.647 166.807 187.132C166.778 187.931 166.693 188.872 166.693 189.699C166.693 190.013 166.236 190.213 165.922 190.27C165.523 190.327 165.238 190.098 165.238 189.585C165.238 188.216 165.352 186.961 165.352 185.592C165.381 184.508 165.152 183.281 165.295 182.198C165.352 181.684 165.894 181.456 166.322 181.513Z" fill="#F4EFEA"/>
<path d="M180.555 180.971C180.526 181.855 180.526 182.711 180.526 183.595C180.526 184.622 180.526 185.592 180.412 186.619C180.298 187.36 180.441 188.245 180.269 188.929C179.813 190.726 177.303 190.099 175.706 190.099C174.736 190.099 174.365 189.072 175.364 188.929C176.219 188.815 176.704 188.815 177.931 188.929C178.073 188.958 178.53 188.901 178.672 188.729C178.815 188.53 178.929 188.245 178.957 187.959C178.986 187.189 178.929 186.391 178.929 185.592C178.957 184.936 179.072 184.28 179.043 183.652C179.014 182.255 179.1 180.886 179.014 179.488C179.014 179.174 179.043 178.604 178.758 178.376C178.444 178.147 177.845 178.176 177.503 178.176C177.132 178.147 176.676 178.147 176.333 178.147C176.305 179.146 176.276 180.001 176.248 180.943C176.219 181.627 176.191 182.797 176.219 183.51C176.533 183.51 176.875 183.453 177.218 183.538C177.674 183.681 177.817 183.881 177.731 184.194C177.645 184.565 177.246 184.936 176.733 184.879C176.362 184.85 175.506 184.936 175.021 184.879C174.679 184.822 174.736 184.451 174.708 184.137C174.65 183.025 174.679 181.428 174.679 180.315C174.708 179.716 174.708 179.203 174.736 178.575C174.765 178.204 174.765 177.72 174.765 177.349C174.793 176.949 175.221 176.636 175.592 176.664C175.791 176.664 175.963 176.807 176.162 176.807C177.132 176.835 177.959 176.778 178.615 176.778C179.499 176.778 180.098 177.178 180.412 178.119C180.726 179.032 180.583 180.03 180.555 180.971Z" fill="#F4EFEA"/>
<path d="M189.31 187.303C189.167 188.159 188.796 189.442 187.884 189.813C187.285 190.041 186.657 190.013 186.03 189.956C186.058 190.697 186.087 191.525 186.058 192.266C186.03 192.637 186.001 192.78 185.687 192.865C185.231 192.979 184.49 192.865 184.518 192.295C184.632 190.726 184.432 189.1 184.461 187.503C184.461 187.189 184.461 186.875 184.461 186.562C184.461 184.907 184.29 183.253 184.632 181.656C184.746 181.199 185.317 181.057 185.716 181.199C186.058 181.313 186.001 181.57 186.001 181.969C185.859 183.538 185.916 185.62 186.001 187.645C186.03 187.988 185.973 188.301 186.001 188.644C186.058 188.644 186.144 188.644 186.229 188.672C186.686 188.701 187.37 188.843 187.541 188.359C187.741 187.76 187.855 187.104 187.912 186.476C188.026 184.993 187.798 183.396 187.798 181.912C187.798 181.171 187.798 180.401 187.77 179.659C187.77 179.26 187.713 178.832 187.713 178.404C187.713 178.29 187.713 178.119 187.713 178.005C186.828 177.976 185.916 177.976 185.003 177.976C184.318 177.976 184.204 177.434 184.49 177.035C184.604 176.864 184.775 176.664 185.089 176.664C185.944 176.693 186.8 176.636 187.656 176.693C188.112 176.693 188.882 176.636 189.139 177.12C189.51 177.748 189.338 178.689 189.338 179.374C189.367 180.401 189.367 181.37 189.367 182.397C189.31 183.995 189.595 185.734 189.31 187.303Z" fill="#F4EFEA"/>
<path d="M152.12 123.44C149.667 123.555 148.925 122.927 149.04 120.474C149.154 117.536 148.098 116.452 145.788 116.424C142.993 116.395 141.338 117.907 141.253 120.56C141.224 121.529 141.253 122.499 141.253 123.811C141.224 124.182 141.167 124.895 141.139 125.637C140.911 128.546 141.795 129.687 144.647 129.972C146.073 130.115 147.556 130.115 148.983 130.001C150.494 129.887 150.637 130.4 150.38 131.798C148.526 141.895 146.786 152.02 145.018 162.146C144.647 164.285 145.446 165.312 147.585 165.597C150.38 165.94 152.434 164.371 153.004 161.376C154.915 151.279 156.855 141.182 158.766 131.113C160.021 124.524 158.88 123.098 152.12 123.44Z" fill="#F4EFEA"/>
<path d="M125.877 126.179C125.648 124.81 124.707 124.04 123.424 123.868C118.232 123.184 112.984 123.526 107.793 123.412C105.968 123.355 104.684 124.753 104.741 126.778C104.798 128.689 106.196 129.316 107.822 129.544C109.248 129.744 110.731 130.115 112.129 129.972C113.07 129.858 113.697 130.001 114.097 130.286V157.754C114.097 159.123 114.068 160.492 114.097 161.861C114.154 164.228 115.466 165.54 117.862 165.712C119.972 165.854 121.456 164.571 121.655 162.232C122.397 152.363 122.425 142.465 122.682 132.596C122.711 131.056 122.625 129.887 124.393 129.202C125.534 128.746 126.105 127.548 125.877 126.179Z" fill="#F4EFEA"/>
<path d="M98.7226 124.439C94.5868 123.013 90.2227 122.785 85.8873 123.583C83.8907 123.954 83.1776 125.437 83.3487 127.348C83.4913 129.174 84.6322 130.058 86.3721 130.143C88.055 130.229 89.7379 130.115 91.4207 130.115C94.872 130.115 95.1002 130.4 95.2428 133.766C95.585 142.751 95.3854 151.735 95.1572 160.749C95.0716 163.829 96.5548 165.341 99.3786 165.369C101.946 165.398 103.087 164.086 103.115 160.891C103.144 156.156 103.115 151.422 103.115 146.687C103.144 146.687 103.172 146.687 103.201 146.687C103.201 141.781 103.258 136.903 103.172 131.997C103.144 128.66 102.174 125.608 98.7226 124.439Z" fill="#F4EFEA"/>
<path d="M138.227 144.291C138.227 139.299 138.284 134.308 138.227 129.345C138.141 123.497 136.886 122.471 130.953 123.041C130.383 123.098 129.841 123.184 129.271 123.241C127.331 123.469 126.789 124.866 126.732 126.492C126.675 128.09 127.303 129.43 129.071 129.573C130.497 129.687 130.497 130.486 130.526 131.512C130.611 136.646 130.754 141.809 130.412 146.943C130.098 151.935 130.098 156.898 130.526 161.889C130.782 164.799 131.724 165.854 134.034 165.768C136.658 165.683 138.598 163.914 138.398 161.404C137.913 155.7 138.255 149.995 138.227 144.291Z" fill="#F4EFEA"/>
<path d="M89.3674 137.331C86.1728 136.732 84.0336 138.444 83.9765 141.724C83.9195 145.089 83.9765 148.455 83.9765 151.821C83.9765 155.186 83.9195 158.552 84.0051 161.918C84.0621 164.513 85.2886 165.54 87.8271 165.369C90.3657 165.198 91.6207 163.943 91.6777 161.404C91.8203 154.359 91.8774 147.314 91.9915 140.24C91.9915 138.472 90.9646 137.645 89.3674 137.331Z" fill="#F4EFEA"/>
<path d="M126.617 143.977C124.848 143.92 123.907 144.804 123.879 146.572C123.85 148.227 124.82 149.139 126.389 149.197C127.957 149.225 128.927 148.369 129.013 146.601C128.927 145.175 128.328 144.062 126.617 143.977Z" fill="#F4EFEA"/>
<path d="M152.518 123.754C150.065 123.868 149.323 123.241 149.437 120.788C149.551 117.85 148.496 116.766 146.185 116.738C143.39 116.709 141.736 118.221 141.65 120.873C141.622 121.843 141.65 122.813 141.65 124.125C141.622 124.496 141.565 125.209 141.536 125.95C141.308 128.86 142.192 130.001 145.045 130.286C146.471 130.429 147.954 130.429 149.38 130.314C150.892 130.2 151.034 130.714 150.778 132.111C148.924 142.208 147.184 152.334 145.415 162.46C145.045 164.599 145.843 165.626 147.982 165.911C150.778 166.253 152.831 164.685 153.402 161.69C155.313 151.593 157.252 141.495 159.163 131.427C160.39 124.838 159.249 123.412 152.518 123.754Z" fill="#F4EFEA"/>
<path d="M126.248 126.521C126.019 125.152 125.078 124.382 123.795 124.211C118.604 123.526 113.355 123.868 108.164 123.754C106.339 123.697 105.055 125.095 105.112 127.12C105.169 129.031 106.567 129.658 108.193 129.887C109.619 130.086 111.102 130.457 112.5 130.314C113.441 130.2 114.068 130.343 114.468 130.628V158.096C114.468 159.465 114.439 160.834 114.468 162.203C114.525 164.57 115.837 165.883 118.233 166.054C120.343 166.196 121.827 164.913 122.026 162.574C122.768 152.705 122.796 142.807 123.053 132.939C123.082 131.398 122.996 130.229 124.764 129.544C125.905 129.059 126.476 127.861 126.248 126.521Z" fill="#F4EFEA"/>
<path d="M99.0937 124.752C94.9578 123.326 90.5938 123.098 86.2583 123.897C84.2617 124.267 83.5487 125.751 83.7198 127.662C83.8624 129.487 85.0033 130.371 86.7432 130.457C88.4261 130.542 90.1089 130.428 91.7918 130.428C95.2431 130.428 95.4712 130.714 95.6139 134.079C95.9561 143.064 95.7565 152.049 95.5283 161.062C95.4427 164.142 96.9259 165.654 99.7497 165.683C102.317 165.711 103.458 164.399 103.486 161.205C103.515 156.47 103.486 151.735 103.486 147C103.515 147 103.543 147 103.572 147C103.572 142.094 103.629 137.217 103.543 132.311C103.515 128.974 102.545 125.922 99.0937 124.752Z" fill="#F4EFEA"/>
<path d="M138.598 144.633C138.598 139.641 138.655 134.65 138.598 129.687C138.512 123.84 137.257 122.813 131.325 123.383C130.754 123.44 130.212 123.526 129.642 123.583C127.702 123.811 127.16 125.209 127.103 126.835C127.046 128.432 127.674 129.772 129.442 129.915C130.868 130.029 130.868 130.828 130.897 131.855C130.982 136.989 131.125 142.151 130.783 147.285C130.469 152.277 130.469 157.24 130.897 162.231C131.153 165.141 132.095 166.196 134.405 166.111C137.029 166.025 138.969 164.257 138.769 161.747C138.284 156.013 138.626 150.337 138.598 144.633Z" fill="#F4EFEA"/>
<path d="M89.7385 137.645C86.5439 137.046 84.4047 138.757 84.3476 142.037C84.2906 145.403 84.3476 148.769 84.3476 152.135C84.3476 155.5 84.2906 158.866 84.3761 162.232C84.4332 164.827 85.6597 165.854 88.1982 165.683C90.7368 165.512 91.9918 164.257 92.0488 161.718C92.1914 154.673 92.2485 147.628 92.3626 140.554C92.3626 138.786 91.3643 137.959 89.7385 137.645Z" fill="#F4EFEA"/>
<path d="M126.988 144.319C125.219 144.262 124.278 145.146 124.25 146.915C124.221 148.569 125.191 149.482 126.76 149.539C128.328 149.567 129.298 148.712 129.384 146.943C129.298 145.489 128.699 144.376 126.988 144.319Z" fill="#F4EFEA"/>
<path d="M117.69 211.462C117.861 211.348 118.032 211.205 118.175 211.063C119.087 210.036 119.144 208.068 119.116 207.269C119.087 206.385 119.201 205.529 119.43 204.731C119.943 203.105 120.856 202.078 121.597 201.451C119.8 201.023 117.547 202.249 116.235 204.503C114.723 207.098 115.066 210.093 116.948 211.177C117.262 211.291 117.461 211.377 117.69 211.462Z" fill="#F4EFEA"/>
<path d="M122.451 201.764C121.71 202.249 120.711 203.191 120.17 204.902C119.941 205.615 119.856 206.385 119.884 207.155C119.913 208.268 119.827 210.321 118.715 211.548C120.312 211.491 122.081 210.321 123.164 208.41C124.619 205.843 124.305 202.848 122.451 201.764Z" fill="#F4EFEA"/>
<path d="M121.911 209.009C121.654 209.608 121.226 210.036 120.627 210.293C120.513 210.35 120.399 210.407 120.314 210.435C120.285 210.435 120.257 210.435 120.228 210.435C120.171 210.435 120.114 210.378 120.085 210.321C120.057 210.236 120.085 210.122 120.2 210.093C120.285 210.065 120.399 210.008 120.485 209.979C120.97 209.779 121.369 209.352 121.597 208.838C121.626 208.753 121.654 208.695 121.654 208.638C121.654 208.553 121.74 208.467 121.854 208.496C121.939 208.496 122.025 208.581 121.997 208.695C121.997 208.81 121.968 208.924 121.911 209.009Z" fill="#F4EFEA"/>
<path d="M135.117 211.662C135.289 211.548 135.46 211.405 135.602 211.263C136.515 210.236 136.572 208.268 136.544 207.469C136.515 206.585 136.629 205.729 136.857 204.93C137.371 203.305 138.283 202.278 139.025 201.65C137.228 201.222 134.975 202.449 133.663 204.702C132.151 207.298 132.493 210.293 134.376 211.377C134.661 211.491 134.889 211.576 135.117 211.662Z" fill="#F4EFEA"/>
<path d="M139.853 201.964C139.111 202.449 138.113 203.39 137.571 205.101C137.343 205.815 137.257 206.585 137.286 207.355C137.314 208.467 137.229 210.521 136.116 211.747C137.713 211.69 139.482 210.521 140.566 208.61C142.049 206.043 141.735 203.048 139.853 201.964Z" fill="#F4EFEA"/>
<path d="M139.31 209.209C139.054 209.808 138.626 210.236 138.027 210.492C137.913 210.549 137.799 210.606 137.713 210.635C137.685 210.635 137.656 210.635 137.628 210.635C137.57 210.635 137.513 210.578 137.485 210.521C137.456 210.435 137.485 210.321 137.599 210.293C137.685 210.264 137.799 210.207 137.884 210.179C138.369 209.979 138.768 209.551 138.997 209.038C139.025 208.952 139.054 208.895 139.054 208.838C139.054 208.752 139.139 208.667 139.253 208.695C139.339 208.695 139.424 208.781 139.396 208.895C139.424 209.009 139.396 209.123 139.31 209.209Z" fill="#F4EFEA"/>
</svg>
