<svg width="22" height="27" viewBox="0 0 22 27" fill="none" xmlns="http://www.w3.org/2000/svg">
<path d="M8.77157 11.641L10.9317 9.66009C11.5228 9.11777 11.9385 8.41123 12.1254 7.63109C12.3122 6.85094 12.2618 6.03276 11.9805 5.28147L11.0575 2.81736C10.713 1.89796 10.0309 1.14453 9.1502 0.710617C8.26947 0.276706 7.25643 0.19498 6.31753 0.482095C2.86295 1.539 0.207596 4.74999 1.02494 8.56392C1.56245 11.0723 2.59017 14.2209 4.53991 17.5718C6.17366 20.394 8.22898 22.95 10.6348 25.1513C13.5236 27.7805 17.6506 27.1232 20.306 24.6481C21.0178 23.9844 21.4497 23.0743 21.5136 22.1032C21.5776 21.1321 21.2688 20.1732 20.6502 19.4219L18.9582 17.3665C18.4482 16.7466 17.7646 16.2934 16.9952 16.0649C16.2257 15.8364 15.4055 15.8431 14.6399 16.0841L11.8457 16.9648C11.738 16.8541 11.6142 16.7222 11.4773 16.5703C10.9028 15.9347 10.3945 15.2423 9.96034 14.5037C9.53795 13.7583 9.19259 12.9718 8.92961 12.1564C8.87339 11.9857 8.8207 11.8139 8.77157 11.641V11.641Z" fill="#4A280F"/>
</svg>
