<svg width="33" height="33" viewBox="0 0 33 33" fill="none" xmlns="http://www.w3.org/2000/svg">
<path d="M28.7496 16.6015C28.7496 17.9741 28.7678 19.3513 28.7451 20.7239C28.7269 21.7738 28.6815 22.8282 28.3951 23.8508C27.6725 26.4051 25.9954 27.9595 23.4229 28.5595C22.6502 28.7413 21.8594 28.8004 21.064 28.8094C18.4779 28.8322 15.8918 28.8503 13.3057 28.8503C12.4694 28.8503 11.6286 28.8094 10.7968 28.7413C9.34241 28.6186 7.98345 28.205 6.82447 27.2687C5.64277 26.3142 4.92465 25.0734 4.58378 23.6009C4.36562 22.6691 4.31108 21.7192 4.30199 20.7693C4.28381 18.3786 4.27017 15.9834 4.27926 13.5927C4.28381 12.6246 4.31562 11.6475 4.40652 10.6839C4.58832 8.81136 5.30189 7.18425 6.79266 5.96164C7.67439 5.23898 8.69702 4.82538 9.80146 4.60268C10.6377 4.43451 11.4831 4.38906 12.333 4.38452C14.9919 4.37088 17.6462 4.35725 20.305 4.37088C21.2276 4.37543 22.1548 4.40724 23.0684 4.57541C25.3136 4.98446 27.0089 6.13889 27.9952 8.23869C28.386 9.07498 28.586 9.9658 28.6587 10.8839C28.8133 12.7883 28.7769 14.6926 28.7496 16.6015ZM16.9008 26.6778C18.1279 26.6551 19.746 26.6415 21.3594 26.5869C21.9321 26.5687 22.5139 26.5006 23.0729 26.3733C24.6 26.0233 25.6499 25.1053 26.1681 23.6099C26.409 22.9191 26.4908 22.1964 26.5089 21.4692C26.5408 20.2648 26.5726 19.0558 26.5726 17.8514C26.568 15.8334 26.5499 13.8154 26.5044 11.7974C26.4908 11.2157 26.4135 10.6248 26.2908 10.0522C26.0135 8.77046 25.2954 7.79328 24.1092 7.19788C23.3547 6.8161 22.5321 6.67521 21.6958 6.63885C20.8777 6.60249 20.0596 6.57067 19.246 6.56613C16.4963 6.54795 13.7465 6.48886 11.0013 6.66612C10.2832 6.71157 9.5833 6.87519 8.9379 7.19788C7.67893 7.83419 6.98809 8.89317 6.7063 10.2476C6.52905 11.1021 6.50178 11.9747 6.50178 12.8428C6.49268 15.6016 6.50177 18.3604 6.53359 21.1238C6.53814 21.7374 6.60177 22.3601 6.71994 22.9645C7.07445 24.7553 8.13798 25.9097 9.91963 26.3688C10.7286 26.5778 11.5558 26.6051 12.383 26.6233C13.7511 26.6506 15.1328 26.6551 16.9008 26.6778Z" fill="#4A280F"/>
<path d="M22.8137 16.6018C22.8137 20.0833 20.0003 22.8967 16.5188 22.8967C13.0419 22.8967 10.2285 20.0788 10.2285 16.5973C10.2285 13.1113 13.051 10.3115 16.5643 10.3115C20.0049 10.3115 22.8137 13.1385 22.8137 16.6018ZM20.6093 16.6155C20.6139 14.3748 18.8004 12.5431 16.587 12.5159C14.319 12.4886 12.4738 14.3066 12.4328 16.5337C12.3919 18.8016 14.2236 20.6878 16.5006 20.6924C18.7686 20.6969 20.6003 18.8789 20.6093 16.6155Z" fill="#4A280F"/>
<path d="M21.6006 10.0519C21.6051 9.22468 22.2551 8.58838 23.0914 8.58838C23.8913 8.59292 24.5458 9.26104 24.5367 10.0655C24.5276 10.87 23.8685 11.5245 23.0686 11.5245C22.2596 11.529 21.6006 10.8654 21.6006 10.0519Z" fill="#4A280F"/>
</svg>
