<svg width="34" height="33" viewBox="0 0 34 33" fill="none" xmlns="http://www.w3.org/2000/svg">
<path d="M16.9132 4.36774C19.8265 4.36774 22.7399 4.36774 25.6533 4.36774C27.7121 4.36774 29.1347 5.78579 29.1347 7.84468C29.1347 13.6987 29.1347 19.5527 29.1347 25.4066C29.1347 27.4201 27.7167 28.8427 25.7033 28.8427C24.1852 28.8427 22.6672 28.8336 21.1491 28.8518C20.7901 28.8563 20.6492 28.7836 20.6492 28.3836C20.6674 25.7975 20.6674 23.2114 20.6537 20.6298C20.6537 20.2526 20.7901 20.1617 21.1355 20.1708C21.8854 20.189 22.6399 20.1799 23.3944 20.1753C24.0307 20.1708 24.2125 19.9844 24.2807 19.3572C24.3625 18.5846 24.4579 17.8119 24.5625 17.0438C24.6397 16.4711 24.3943 16.1439 23.808 16.1393C22.8899 16.1257 21.9763 16.1257 21.0582 16.1393C20.7628 16.1439 20.6446 16.053 20.6537 15.7394C20.6719 15.0304 20.6492 14.3168 20.6628 13.6078C20.681 12.7079 21.0901 12.2397 21.9854 12.1534C22.5536 12.0988 23.1308 12.1125 23.7034 12.0988C24.2534 12.0852 24.4352 11.9034 24.4352 11.3534C24.4352 10.6444 24.4261 9.93085 24.4397 9.22182C24.4443 8.82186 24.2488 8.5628 23.8716 8.55825C22.6035 8.54007 21.3264 8.41735 20.0765 8.72187C18.304 9.15365 17.0541 10.4944 16.845 12.3261C16.7178 13.4214 16.7496 14.535 16.7496 15.6394C16.7496 16.0394 16.6314 16.1666 16.2405 16.1439C15.736 16.1166 15.227 16.1303 14.7225 16.1393C14.1498 16.1484 13.8907 16.3939 13.8907 16.9711C13.8862 17.7892 13.8998 18.6118 13.9226 19.4299C13.9407 19.9799 14.1362 20.1617 14.6816 20.1753C15.2406 20.189 15.8042 20.189 16.3632 20.1799C16.6405 20.1753 16.745 20.2799 16.745 20.5662C16.7359 23.2068 16.7359 25.8475 16.7405 28.4836C16.7405 28.7745 16.6359 28.8563 16.3587 28.8563C13.5271 28.8472 10.6956 28.8654 7.86406 28.8472C6.12786 28.8336 4.65982 27.3337 4.65527 25.5975C4.65982 19.5936 4.65982 13.6032 4.66891 7.61289C4.66891 5.8676 6.1824 4.37229 7.93223 4.36774C10.9229 4.3632 13.918 4.36774 16.9132 4.36774Z" fill="#4A280F"/>
</svg>
