<svg width="30" height="30" viewBox="0 0 30 30" fill="none" xmlns="http://www.w3.org/2000/svg">
<path d="M15.0139 0.55762C18.4509 0.55762 21.8879 0.55762 25.3249 0.55762C27.7538 0.55762 29.4321 2.23054 29.4321 4.6595C29.4321 11.5657 29.4321 18.4718 29.4321 25.378C29.4321 27.7533 27.7592 29.4316 25.3838 29.4316C23.5929 29.4316 21.8021 29.4209 20.0112 29.4423C19.5876 29.4477 19.4214 29.3619 19.4214 28.8901C19.4428 25.8391 19.4428 22.7882 19.4267 19.7426C19.4267 19.2976 19.5876 19.1903 19.9951 19.2011C20.8798 19.2225 21.7699 19.2118 22.66 19.2064C23.4106 19.2011 23.6251 18.9812 23.7055 18.2413C23.8021 17.3297 23.9147 16.4182 24.038 15.512C24.1291 14.8364 23.8396 14.4504 23.1479 14.445C22.0648 14.4289 20.987 14.4289 19.9039 14.445C19.5554 14.4504 19.416 14.3431 19.4267 13.9732C19.4482 13.1367 19.4214 12.2949 19.4375 11.4584C19.4589 10.3968 19.9415 9.84448 20.9978 9.74261C21.668 9.67826 22.349 9.69435 23.0246 9.67826C23.6734 9.66218 23.8878 9.4477 23.8878 8.79891C23.8878 7.96245 23.8771 7.12062 23.8932 6.28416C23.8986 5.81231 23.668 5.50668 23.223 5.50132C21.727 5.47987 20.2203 5.3351 18.7458 5.69435C16.6546 6.20373 15.1801 7.7855 14.9334 9.94636C14.7833 11.2386 14.8208 12.5523 14.8208 13.8552C14.8208 14.3271 14.6814 14.4772 14.2203 14.4504C13.6251 14.4182 13.0246 14.4343 12.4294 14.445C11.7538 14.4557 11.4482 14.7453 11.4482 15.4263C11.4428 16.3914 11.4589 17.3619 11.4857 18.3271C11.5072 18.9759 11.7377 19.1903 12.3812 19.2064C13.0407 19.2225 13.7055 19.2225 14.3651 19.2118C14.6921 19.2064 14.8155 19.3297 14.8155 19.6675C14.8047 22.7828 14.8047 25.8981 14.8101 29.008C14.8101 29.3512 14.6868 29.4477 14.3597 29.4477C11.0192 29.437 7.67874 29.4584 4.33826 29.437C2.29 29.4209 0.558096 27.6515 0.552734 25.6032C0.558096 18.5201 0.558096 11.4531 0.56882 4.38604C0.56882 2.32706 2.35434 0.562982 4.41869 0.55762C7.94684 0.552258 11.4803 0.55762 15.0139 0.55762Z" fill="#F4EFEA"/>
</svg>
