<svg width="30" height="30" viewBox="0 0 30 30" fill="none" xmlns="http://www.w3.org/2000/svg">
<path d="M29.4199 14.9919C29.4199 16.6112 29.4414 18.2359 29.4145 19.8552C29.3931 21.0938 29.3395 22.3378 29.0017 23.5442C28.1491 26.5576 26.1706 28.3914 23.1357 29.0992C22.2242 29.3137 21.2912 29.3834 20.3529 29.3941C17.3019 29.4209 14.251 29.4423 11.2001 29.4423C10.2135 29.4423 9.22151 29.3941 8.24028 29.3137C6.52446 29.1689 4.92124 28.681 3.55395 27.5764C2.15984 26.4504 1.31266 24.9866 0.910514 23.2493C0.653142 22.1501 0.588798 21.0295 0.578075 19.9088C0.556627 17.0885 0.540541 14.2627 0.551265 11.4424C0.556627 10.3003 0.59416 9.14745 0.701399 8.01072C0.915876 5.8016 1.7577 3.88203 3.51641 2.43967C4.55663 1.58713 5.76306 1.09919 7.06601 0.836457C8.05261 0.638065 9.04993 0.584446 10.0526 0.579084C13.1893 0.562999 16.3207 0.546913 19.4574 0.562998C20.5459 0.56836 21.6397 0.605894 22.7175 0.804285C25.3663 1.28686 27.3663 2.64879 28.5298 5.126C28.9909 6.11259 29.2269 7.16353 29.3127 8.24664C29.495 10.4933 29.4521 12.7399 29.4199 14.9919ZM15.4413 26.8793C16.8891 26.8525 18.7979 26.8364 20.7014 26.7721C21.377 26.7507 22.0633 26.6702 22.7229 26.5201C24.5245 26.1072 25.7631 25.0241 26.3743 23.26C26.6585 22.445 26.755 21.5925 26.7765 20.7346C26.814 19.3137 26.8515 17.8874 26.8515 16.4665C26.8462 14.0858 26.8247 11.7051 26.7711 9.32439C26.755 8.63806 26.6639 7.94101 26.5191 7.26541C26.192 5.75335 25.3448 4.60053 23.9454 3.89812C23.0553 3.44772 22.0848 3.2815 21.0982 3.2386C20.133 3.19571 19.1679 3.15817 18.2081 3.15281C14.9641 3.13136 11.7202 3.06166 8.48156 3.27077C7.63438 3.32439 6.80864 3.51742 6.04724 3.89812C4.56199 4.64879 3.74698 5.89812 3.41454 7.49597C3.20542 8.50401 3.17325 9.5335 3.17325 10.5576C3.16253 13.8123 3.17325 17.067 3.21078 20.3271C3.21615 21.0509 3.29121 21.7855 3.43062 22.4986C3.84885 24.6112 5.10354 25.9732 7.20542 26.5147C8.15985 26.7614 9.13572 26.7936 10.1116 26.815C11.7255 26.8472 13.3556 26.8525 15.4413 26.8793Z" fill="#F4EFEA"/>
<path d="M22.4175 14.992C22.4175 19.0992 19.0985 22.4182 14.9912 22.4182C10.8893 22.4182 7.57031 19.0938 7.57031 14.9866C7.57031 10.874 10.9001 7.57104 15.0448 7.57104C19.1038 7.57104 22.4175 10.9062 22.4175 14.992ZM19.817 15.008C19.8223 12.3646 17.6829 10.2038 15.0717 10.1716C12.3961 10.1394 10.2191 12.2842 10.1708 14.9115C10.1226 17.5871 12.2835 19.8123 14.9698 19.8177C17.6454 19.8231 19.8062 17.6783 19.817 15.008Z" fill="#F4EFEA"/>
<path d="M20.9854 7.26542C20.9907 6.28955 21.7575 5.53888 22.7441 5.53888C23.6878 5.54424 24.4599 6.33244 24.4492 7.28151C24.4384 8.23057 23.661 9.00268 22.7173 9.00268C21.7628 9.00805 20.9854 8.2252 20.9854 7.26542Z" fill="#F4EFEA"/>
</svg>
