<svg width="1366" height="716" viewBox="0 0 1366 716" fill="none" xmlns="http://www.w3.org/2000/svg">
<path d="M52.0037 105.847C-190.415 119.548 -343.154 490.075 -343.154 490.075H-402.581L-481 713.578C-481 713.578 397.565 737.194 1120.6 636.945C1422.55 595.079 1656.8 393.388 1518.07 209.584C1237.67 -161.927 769.394 65.3026 52.0037 105.847Z" fill="url(#paint0_linear_391_2086)" fill-opacity="0.75"/>
<path d="M52.0037 105.847C-190.415 119.548 -343.154 490.075 -343.154 490.075H-402.581L-481 713.578C-481 713.578 397.565 737.194 1120.6 636.945C1422.55 595.079 1656.8 393.388 1518.07 209.584C1237.67 -161.927 769.394 65.3026 52.0037 105.847Z" fill="url(#paint1_radial_391_2086)" fill-opacity="0.05"/>
<defs>
<linearGradient id="paint0_linear_391_2086" x1="1559" y1="2.44627e-05" x2="1470.1" y2="1113.48" gradientUnits="userSpaceOnUse">
<stop offset="0.0520833" stop-color="#E6BE83" stop-opacity="0.85"/>
<stop offset="0.3125" stop-color="#F9DF9C"/>
<stop offset="0.992036" stop-color="#FFB64B" stop-opacity="0.75"/>
</linearGradient>
<radialGradient id="paint1_radial_391_2086" cx="0" cy="0" r="1" gradientUnits="userSpaceOnUse" gradientTransform="translate(539 358) rotate(-87.9148) scale(74.7561 212.731)">
<stop stop-color="#E8CD98"/>
<stop offset="1" stop-color="white" stop-opacity="0.45"/>
</radialGradient>
</defs>
</svg>
