<svg width="183" height="152" viewBox="0 0 183 152" fill="none" xmlns="http://www.w3.org/2000/svg">
<g clip-path="url(#clip0_404_546)">
<path d="M182.258 41.2923C182.258 42.201 182.229 43.106 182.171 44.0001C181.838 49.1683 180.532 54.227 178.321 58.9104C178.303 58.9504 178.285 58.9905 178.267 59.0267C178.165 59.2448 178.06 59.4594 177.951 59.6738C174.596 66.4145 169.465 72.1115 163.111 76.1503C156.756 80.189 149.42 82.4162 141.893 82.5917L142.303 106.088L147.629 103.281L148.581 105.092L142.343 108.374L143.067 149.819L143.103 152H139.021L139.061 149.819L140.301 82.5954C134.846 82.5177 129.46 81.3568 124.458 79.1804C119.455 77.0039 114.935 73.8551 111.16 69.917C110.898 69.6479 110.644 69.3717 110.389 69.0954C110.378 69.0846 110.371 69.0736 110.364 69.0663C107.216 65.6359 104.671 61.6984 102.836 57.4201C102.876 57.4675 102.919 57.5074 102.959 57.5546C98.8106 47.8555 98.5288 36.9369 102.172 27.0367C105.814 17.1364 113.106 9.00439 122.552 4.30729C122.693 4.23825 122.842 4.16903 122.984 4.09644C132.327 -0.403762 143.02 -1.22928 152.943 1.78351C162.866 4.79631 171.295 11.4275 176.558 20.3625C176.809 20.7841 177.053 21.2168 177.285 21.6493C180.557 27.6793 182.266 34.4322 182.258 41.2923Z" fill="url(#paint0_linear_404_546)"/>
<path d="M10.5063 145.552C7.5171 147.78 6.66992 151.701 6.66992 151.701C6.66992 151.701 10.6692 152.009 13.6584 149.781C16.6476 147.552 17.4948 143.632 17.4948 143.632C17.4948 143.632 13.4955 143.324 10.5063 145.552Z" fill="#F1F1F1"/>
<path d="M11.7522 146.598C10.3155 150.039 6.71746 151.812 6.71746 151.812C6.71746 151.812 5.44869 148.006 6.88533 144.566C8.32197 141.125 11.92 139.353 11.92 139.353C11.92 139.353 13.1888 143.158 11.7522 146.598Z" fill="#F1F1F1"/>
<path d="M74.5756 114.809C88.6732 114.809 100.101 112.43 100.101 109.495C100.101 106.561 88.6732 104.182 74.5756 104.182C60.4781 104.182 49.0498 106.561 49.0498 109.495C49.0498 112.43 60.4781 114.809 74.5756 114.809Z" fill="#CACACA"/>
<path d="M76.0753 112.102H73.0723V151.834H76.0753V112.102Z" fill="#CACACA"/>
<path d="M92.1272 106.982C92.2895 106.663 92.5174 106.381 92.796 106.156C93.0746 105.931 93.3976 105.768 93.7438 105.677C94.09 105.585 94.4516 105.568 94.8049 105.626C95.1582 105.684 95.4953 105.816 95.794 106.014C95.8883 106.077 95.978 106.146 96.0627 106.221L107.087 103.611L107.9 100.913L112.298 101.635L111.399 106.167C111.289 106.71 111.007 107.203 110.595 107.573C110.183 107.943 109.662 108.17 109.11 108.221L96.6383 109.319C96.6001 109.393 96.5582 109.465 96.5126 109.535C96.3151 109.833 96.0567 110.087 95.7543 110.279C95.452 110.471 95.1125 110.597 94.7581 110.648C94.4037 110.7 94.0425 110.676 93.698 110.578C93.3535 110.48 93.0336 110.31 92.7592 110.08C92.6793 110.014 92.6036 109.942 92.5327 109.866C92.1786 109.484 91.9499 109.003 91.8774 108.488C91.8049 107.972 91.892 107.446 92.1272 106.982Z" fill="#FFB8B8"/>
<path d="M116.031 126.173H104.941C104.941 126.492 93.5109 126.751 93.5109 126.751C93.3315 126.886 93.168 127.041 93.0235 127.213C92.5894 127.73 92.3521 128.385 92.3535 129.061V129.523C92.3538 130.288 92.6581 131.023 93.1996 131.564C93.741 132.106 94.4753 132.41 95.2411 132.41H116.031C116.797 132.41 117.531 132.105 118.072 131.564C118.614 131.022 118.918 130.288 118.919 129.523V129.061C118.918 128.295 118.613 127.561 118.072 127.02C117.531 126.479 116.797 126.174 116.031 126.173Z" fill="#E4E4E4"/>
<path d="M106.97 132.296H103.967V151.7H106.97V132.296Z" fill="#E4E4E4"/>
<path d="M95.4209 151.594C95.4209 151.919 99.9715 151.72 105.585 151.72C111.199 151.72 115.749 151.919 115.749 151.594C115.749 151.27 111.199 148.697 105.585 148.697C99.9715 148.697 95.4209 151.27 95.4209 151.594Z" fill="#E4E4E4"/>
<path d="M98.3629 149.089L95.531 149.089L94.1836 141.744L98.3634 141.744L98.3629 149.089Z" fill="#FFB8B8"/>
<path d="M99.0848 151.834L89.9531 151.834V151.718C89.9531 151.252 90.045 150.789 90.2236 150.358C90.4023 149.927 90.6641 149.535 90.9941 149.205C91.3241 148.875 91.7159 148.613 92.1472 148.435C92.5784 148.256 93.0406 148.164 93.5073 148.164H93.5077L99.085 148.164L99.0848 151.834Z" fill="#FC7753"/>
<path d="M94.1265 144.534L88.4806 131.873C88.0092 130.806 87.9571 129.601 88.3346 128.497C88.7122 127.393 89.4916 126.472 90.5177 125.917L102.764 119.35L108.352 118.875L113.507 118.406L113.544 118.469C113.592 118.549 114.7 120.464 113.951 122.563C113.383 124.155 111.904 125.399 109.557 126.259C104.079 128.268 97.7511 129.985 95.2846 130.63C95.1756 130.657 95.0737 130.708 94.9857 130.778C94.8977 130.848 94.8255 130.936 94.7738 131.036C94.7221 131.135 94.6913 131.243 94.6835 131.355C94.6757 131.466 94.691 131.578 94.7285 131.683L99.9738 143.467C100.029 143.617 100.048 143.777 100.031 143.935C100.015 144.093 99.9616 144.246 99.8765 144.38C99.7915 144.515 99.6767 144.628 99.541 144.711C99.4053 144.794 99.2523 144.845 99.0938 144.86L95.1745 145.145C95.1412 145.148 95.1081 145.15 95.0751 145.15C94.8744 145.15 94.6779 145.092 94.5096 144.982C94.3413 144.873 94.2082 144.717 94.1265 144.534Z" fill="#2F2E41"/>
<path d="M100.211 149.089L97.3787 149.089L96.0312 141.744L100.211 141.744L100.211 149.089Z" fill="#FFB8B8"/>
<path d="M100.933 151.834L91.8018 151.834V151.718C91.8018 151.252 91.8937 150.789 92.0723 150.358C92.2509 149.927 92.5127 149.535 92.8427 149.205C93.1728 148.875 93.5646 148.613 93.9958 148.435C94.427 148.256 94.8892 148.164 95.3559 148.164H95.3563L100.934 148.164L100.933 151.834Z" fill="#FC7753"/>
<path d="M96.2057 145.227L90.5597 132.566C90.0883 131.499 90.0362 130.294 90.4137 129.19C90.7913 128.086 91.5707 127.165 92.5968 126.61L104.843 120.043L110.431 119.568L114.469 119.217L114.468 119.162C114.516 119.242 115.624 121.157 114.875 123.256C114.307 124.848 113.984 126.092 111.637 126.952C106.158 128.961 99.8302 130.678 97.3637 131.323C97.2547 131.35 97.1528 131.401 97.0648 131.471C96.9768 131.541 96.9046 131.629 96.8529 131.729C96.8012 131.828 96.7704 131.936 96.7626 132.048C96.7548 132.159 96.7701 132.27 96.8076 132.376L102.053 144.16C102.108 144.31 102.127 144.47 102.111 144.628C102.094 144.786 102.041 144.938 101.956 145.073C101.871 145.208 101.756 145.321 101.62 145.404C101.484 145.487 101.331 145.538 101.173 145.553L97.2536 145.838C97.2203 145.841 97.1872 145.843 97.1542 145.843C96.9535 145.843 96.7571 145.785 96.5887 145.675C96.4204 145.566 96.2873 145.41 96.2057 145.227Z" fill="#2F2E41"/>
<path d="M106.846 119.448C106.575 119.257 102.688 121.296 101.995 119.679C105.229 111.594 103.001 108.103 104.982 103.467C105.33 102.667 105.856 101.957 106.519 101.389C107.182 100.822 107.965 100.412 108.809 100.191L113.948 99.9316L113.975 99.9445C115.135 100.513 116.081 101.439 116.672 102.587C117.264 103.735 117.47 105.043 117.26 106.317C117.241 111.363 114.222 115.212 115.278 118.872C115.322 119.025 115.335 119.185 115.316 119.343C115.297 119.501 115.246 119.654 115.166 119.792C115.089 119.925 114.985 120.041 114.861 120.133C114.738 120.225 114.596 120.29 114.446 120.325L107.66 119.42C107.501 119.458 107.337 119.461 107.177 119.43C107.017 119.399 106.865 119.334 106.732 119.24L106.846 119.448Z" fill="#703F0F"/>
<path d="M112.232 98.0123C115.366 98.0123 117.906 95.4721 117.906 92.3386C117.906 89.2051 115.366 86.6649 112.232 86.6649C109.099 86.6649 106.559 89.2051 106.559 92.3386C106.559 95.4721 109.099 98.0123 112.232 98.0123Z" fill="#FFB8B8"/>
<path d="M114.04 97.5463C113.738 97.6782 113.121 95.2762 113.397 94.7957C113.809 94.0813 113.784 94.0864 114.057 93.6137C114.33 93.141 114.391 92.494 114.038 92.0781C113.684 91.6621 112.866 91.7173 112.705 92.2388C112.809 91.2483 111.829 90.4521 110.858 90.2283C109.888 90.0046 108.864 90.1435 107.889 89.9444C106.756 89.7133 105.578 88.764 106.03 87.5187C106.107 87.3114 106.223 87.1206 106.372 86.9564C106.894 86.3695 107.624 86.1188 108.338 85.8765C109.823 85.3723 111.349 84.8619 112.917 84.9175C114.209 84.985 115.453 85.4276 116.497 86.1911C117.541 86.9546 118.339 88.0059 118.795 89.2163C118.903 89.5191 118.987 89.83 119.045 90.1461C119.584 93.0393 117.903 95.893 115.175 96.9947L114.04 97.5463Z" fill="#2F2E41"/>
<path d="M30.234 124.501H38.9036C38.9036 124.872 48.3807 125.174 48.3807 125.174C48.5897 125.331 48.7803 125.512 48.9486 125.712C49.4545 126.316 49.7311 127.078 49.7294 127.866V128.404C49.7291 129.296 49.3744 130.152 48.7435 130.783C48.1125 131.414 47.2569 131.769 46.3646 131.769H30.234C29.3418 131.768 28.4864 131.413 27.8555 130.783C27.2247 130.152 26.8699 129.296 26.8691 128.404V127.866C26.8704 126.974 27.2253 126.119 27.856 125.488C28.4868 124.857 29.3419 124.502 30.234 124.501Z" fill="#E4E4E4"/>
<path d="M40.0375 131.635H36.5381V151.834H40.0375V131.635Z" fill="#E4E4E4"/>
<path d="M50.2489 151.46C50.2489 151.838 44.9461 151.606 38.4047 151.606C31.8634 151.606 26.5605 151.838 26.5605 151.46C26.5605 151.082 31.8634 148.084 38.4047 148.084C44.9461 148.084 50.2489 151.082 50.2489 151.46Z" fill="#E4E4E4"/>
<path d="M52.6001 149.152H55.2044L56.4435 139.106L52.5996 139.107L52.6001 149.152Z" fill="#9F616A"/>
<path d="M51.9355 148.302L57.0646 148.302H57.0648C57.9317 148.302 58.763 148.646 59.376 149.259C59.9889 149.872 60.3333 150.703 60.3334 151.57V151.676L51.9357 151.677L51.9355 148.302Z" fill="#2F2E41"/>
<path d="M60.2973 149.152H62.9019L64.1408 139.106L60.2969 139.107L60.2973 149.152Z" fill="#9F616A"/>
<path d="M59.6328 148.302L64.7618 148.302H64.762C65.6289 148.302 66.4603 148.646 67.0732 149.259C67.6862 149.872 68.0306 150.703 68.0307 151.57V151.676L59.633 151.677L59.6328 148.302Z" fill="#2F2E41"/>
<path d="M51.2326 117.359C51.1964 117.072 51.0976 116.796 50.9433 116.551C50.7889 116.306 50.5828 116.098 50.3393 115.941C50.0959 115.785 49.821 115.683 49.5342 115.645C49.2473 115.606 48.9554 115.63 48.679 115.716L45.7804 112.241L43.2393 113.488L47.4015 118.337C47.577 118.792 47.9131 119.167 48.3462 119.39C48.7794 119.614 49.2794 119.67 49.7517 119.55C50.2239 119.429 50.6355 119.14 50.9084 118.736C51.1814 118.332 51.2967 117.842 51.2326 117.359Z" fill="#9F616A"/>
<path d="M41.4855 96.7488L43.1857 97.4466L43.5974 102.249L48.1511 114.704L44.2834 115.991L39.9863 107.637L41.4855 96.7488Z" fill="#E4E4E4"/>
<path d="M37.0703 91.1967C39.5713 91.1967 41.5987 89.1693 41.5987 86.6684C41.5987 84.1674 39.5713 82.14 37.0703 82.14C34.5694 82.14 32.542 84.1674 32.542 86.6684C32.542 89.1693 34.5694 91.1967 37.0703 91.1967Z" fill="#9F616A"/>
<path d="M36.3736 84.5612C36.3736 84.5612 36.5724 81.8102 39.0239 82.9319C41.4755 84.0536 41.3155 80.9619 40.5747 80.4155C39.8338 79.8692 39.8573 79.734 37.1477 80.0995C34.4381 80.465 29.1776 81.0844 30.8786 86.5326C32.5795 91.9807 35.0845 90.5624 35.0845 90.5624C35.0845 90.5624 32.768 85.6765 34.1379 86.6106L35.5079 87.5446L36.2308 87.3915L36.3736 84.5612Z" fill="#2F2E41"/>
<path d="M29.4998 117.655C29.4998 117.655 27.9711 125.122 33.7877 126.073C39.6042 127.024 48.0006 127.692 48.0006 127.692L51.7711 143.942L56.8367 143.524C56.8367 143.524 56.163 123.963 54.5063 122.433C52.8495 120.902 44.9719 116.424 44.9719 116.424L29.4998 117.655Z" fill="#2F2E41"/>
<path d="M40.9793 114.307L43.5626 116.462C43.5626 116.462 62.2154 118.96 62.935 122.542C64.0214 127.949 65.3046 139.709 65.3046 139.709L59.6965 139.359L57.4973 125.992L48.5242 124.295L38.3154 119.669L40.9793 114.307Z" fill="#2F2E41"/>
<path d="M40.7889 94.9992L39.3202 93.052L34.5577 92.9741C33.072 93.7648 31.8294 94.9447 30.963 96.3875C30.0965 97.8302 29.6387 99.4815 29.6387 101.164V113.485C29.6387 113.485 29.7064 115.125 29.3479 118.89C29.0385 122.138 46.3265 116.986 46.3265 116.986L44.0822 98.7018C44.0822 98.7018 44.2626 95.7893 40.7889 94.9992Z" fill="#E4E4E4"/>
<path d="M335.556 152H1.4443C1.32646 152 1.21345 151.947 1.13013 151.854C1.04681 151.76 1 151.633 1 151.5C1 151.367 1.04681 151.24 1.13013 151.146C1.21345 151.053 1.32646 151 1.4443 151H335.556C335.674 151 335.787 151.053 335.87 151.146C335.953 151.24 336 151.367 336 151.5C336 151.633 335.953 151.76 335.87 151.854C335.787 151.947 335.674 152 335.556 152Z" fill="#CACACA"/>
<path d="M89.9584 93.1944C89.7575 91.8415 89.7045 90.4708 89.8001 89.1065L89.9584 86.8485C89.0864 88.5835 89.2835 90.867 89.9584 93.1944Z" fill="#E5E5E5"/>
<path d="M90.6386 93.5721C90.5419 92.7648 90.5164 91.9506 90.5625 91.1388L90.6386 89.7948C90.2191 90.8275 90.3139 92.1867 90.6386 93.5721Z" fill="#E5E5E5"/>
<path d="M93.66 95.2343V95.9898C93.6597 96.0498 93.6358 96.1073 93.5933 96.1497C93.5509 96.1921 93.4934 96.2161 93.4334 96.2164H93.0557C93.0458 96.2164 93.0359 96.2183 93.0267 96.2221C93.0176 96.2259 93.0092 96.2315 93.0022 96.2385C92.9952 96.2455 92.9896 96.2538 92.9858 96.263C92.982 96.2722 92.9801 96.282 92.9801 96.292V102.487C92.9798 102.547 92.9559 102.604 92.9134 102.647C92.871 102.689 92.8135 102.713 92.7535 102.713H88.1452C88.0851 102.713 88.0275 102.689 87.985 102.647C87.9425 102.604 87.9186 102.547 87.9185 102.487V96.292C87.9185 96.272 87.9105 96.2528 87.8963 96.2386C87.8822 96.2245 87.863 96.2165 87.843 96.2164H87.3897C87.3296 96.2164 87.272 96.1925 87.2295 96.15C87.187 96.1075 87.1631 96.0499 87.1631 95.9898V95.2343C87.163 95.2045 87.1689 95.1751 87.1803 95.1476C87.1916 95.12 87.2083 95.095 87.2294 95.074C87.2504 95.0529 87.2754 95.0362 87.3029 95.0249C87.3305 95.0135 87.3599 95.0076 87.3897 95.0077H93.4334C93.4935 95.0079 93.551 95.0318 93.5935 95.0743C93.6359 95.1167 93.6599 95.1743 93.66 95.2343Z" fill="#3F3D56"/>
<path d="M92.9883 96.375H87.9268V96.6016H92.9883V96.375Z" fill="#6C63FF"/>
<path d="M92.9809 99.7099C92.1695 100.059 91.2955 100.238 90.4123 100.238C89.5291 100.238 88.6552 100.059 87.8438 99.7099V98.1132C89.5104 97.5534 91.3143 97.5534 92.9809 98.1132V99.7099Z" fill="#6C63FF"/>
<path d="M58.7728 98.2765C58.572 96.9237 58.5189 95.553 58.6146 94.1887L58.7728 91.9307C57.9009 93.6656 58.0979 95.9491 58.7728 98.2765Z" fill="#E5E5E5"/>
<path d="M59.4531 98.6543C59.3564 97.847 59.3309 97.0327 59.3769 96.221L59.4531 94.877C59.0335 95.9097 59.1284 97.2689 59.4531 98.6543Z" fill="#E5E5E5"/>
<path d="M62.4755 100.316V101.072C62.4752 101.132 62.4512 101.189 62.4088 101.232C62.3663 101.274 62.3088 101.298 62.2488 101.298H61.8711C61.8612 101.298 61.8513 101.3 61.8422 101.304C61.833 101.308 61.8246 101.313 61.8176 101.32C61.8106 101.327 61.805 101.336 61.8012 101.345C61.7975 101.354 61.7955 101.364 61.7956 101.374V107.569C61.7953 107.629 61.7713 107.686 61.7288 107.729C61.6864 107.771 61.6289 107.795 61.5689 107.795H56.9606C56.9005 107.795 56.8429 107.771 56.8004 107.729C56.7579 107.686 56.734 107.629 56.734 107.569V101.374C56.7339 101.354 56.7259 101.335 56.7118 101.321C56.6976 101.306 56.6784 101.298 56.6584 101.298H56.2052C56.1451 101.298 56.0874 101.274 56.0449 101.232C56.0025 101.189 55.9786 101.132 55.9785 101.072V100.316C55.9785 100.286 55.9843 100.257 55.9957 100.229C56.0071 100.202 56.0238 100.177 56.0448 100.156C56.0659 100.135 56.0909 100.118 56.1184 100.107C56.1459 100.095 56.1754 100.09 56.2052 100.09H62.2488C62.3089 100.09 62.3664 100.114 62.4089 100.156C62.4514 100.199 62.4753 100.256 62.4755 100.316Z" fill="#3F3D56"/>
<path d="M61.8018 101.457H56.7402V101.684H61.8018V101.457Z" fill="#6C63FF"/>
<path d="M61.7953 104.792C60.9839 105.141 60.11 105.321 59.2268 105.321C58.3436 105.321 57.4696 105.141 56.6582 104.792V103.195C58.3248 102.636 60.1287 102.636 61.7953 103.195V104.792Z" fill="#6C63FF"/>
<path d="M101.516 111.565L91.6582 103.788C91.5797 103.816 91.4998 103.839 91.4189 103.859C91.0709 103.94 90.7098 103.947 90.3588 103.88C90.0079 103.813 89.6751 103.672 89.3819 103.468C89.0868 103.263 88.8388 102.998 88.6545 102.69C88.4702 102.382 88.3539 102.038 88.3132 101.682C88.2376 101.037 88.4114 100.388 88.799 99.8677C89.1865 99.3473 89.7584 98.9948 90.3975 98.8826C91.0366 98.7703 91.6944 98.9067 92.2361 99.2639C92.7778 99.6211 93.1624 100.172 93.311 100.804C93.3364 100.914 93.3541 101.026 93.3639 101.139L103.177 106.8L105.619 105.394L108.325 108.936L104.533 111.639C104.089 111.952 103.556 112.115 103.012 112.101C102.469 112.088 101.944 111.9 101.516 111.565Z" fill="#FFB8B8"/>
<path d="M109.528 110.039L103.903 106.214L106.547 102.47C106.898 101.973 107.413 101.616 108.002 101.462C108.591 101.308 109.215 101.368 109.764 101.629C110.32 101.894 110.763 102.349 111.012 102.912C111.262 103.475 111.302 104.108 111.126 104.698L109.528 110.039Z" fill="#703F0F"/>
<path d="M58.9271 102.72C58.6708 102.585 58.3881 102.509 58.0989 102.495C57.8097 102.482 57.5211 102.532 57.2534 102.642C56.9857 102.753 56.7455 102.92 56.5496 103.133C56.3537 103.346 56.2069 103.6 56.1195 103.876L51.6116 104.268L51.1816 107.065L57.54 106.422C58.0134 106.538 58.5129 106.477 58.9438 106.249C59.3748 106.021 59.7072 105.644 59.8782 105.187C60.0492 104.731 60.0468 104.228 59.8715 103.773C59.6962 103.318 59.3602 102.943 58.9272 102.72H58.9271Z" fill="#9F616A"/>
<path d="M31.9986 98.6165L30.7235 99.5678C30.7235 99.5678 30.0159 101.28 31.4025 103.553C32.7891 105.826 41.5758 110.618 41.5758 110.618L55.802 106.985L53.7748 103.008L43.4088 103.297C43.4088 103.297 37.5473 95.9909 31.9986 98.6165Z" fill="#E4E4E4"/>
</g>
<defs>
<linearGradient id="paint0_linear_404_546" x1="140.944" y1="-0.00012207" x2="140.944" y2="152" gradientUnits="userSpaceOnUse">
<stop stop-color="#BBE1C3"/>
<stop offset="1" stop-color="#BA9E56"/>
</linearGradient>
<clipPath id="clip0_404_546">
<rect width="181.516" height="152" fill="white" transform="translate(0.742188)"/>
</clipPath>
</defs>
</svg>
